{
.appVersion = "118";
DisplayStrings = (
"AVA\012AWA\012AYA\012ATA\012Aw\012Av\012Ay\012Dj\012Pa\012Ro\012Ru\012Ra\012Wo\012We\012Wa\012Wg\012Vo\012Ve\012Vc\012Va\012Vg\012Fr\012r.\012Ze\012Zo\012Zc\012Zu\012Ya\012Yo\012Yc\012Yg\012Ky\012Ko\012Ke\012Kc\012Po\012Pe\012Pc\012Ta\012Tc\012Td\012Te\012Tg\012Tm\012Tn\012Ts\012To\012Td\012Tr\012Ts\012Tv\012Tw\012Tx\012Ty\012Ts\012Fa\012Fc\012Fd\012Fo\012Fs\012Fg\012at\012wa\012wo\012wc\012wd\012wg\012va\012es\012vo\012st\012vc\012vd\012ve\012vg\012aw\012av\012ko\012ke\012kc\012kd\012kg\012ra\012ro\012rc\012re\012rd\012ov\012vo\012va\012ap\012au\012go\012\012\012\012\012\012/space",
"the/space quick/space brown/space fox/space jumps/space over/space the/space lazy/space dog",
"AÁÂÄÀÅÃÆBCÇDÐEÉÊËFGHIÎÏÌJKLMNÑOÓÔÖÒØÕ/OE PÞQRSTUÚÛÜÙVW/Wacute/Wcircumflex/Wdieresis/Wgrave XYÝ/Ycircumflex/Ydieresis/Ygrave Zaáâäàåãæbcçdðeéêëèfghiíîïìjklmnñoóôöòøõ/oe pþqrsßtuúûüùvw/wacute/wcircumflex/wdieresis/wgrave xyý/ycircumflex/ydieresis/ygrave z/a.001/g.001 0123456789/fraction ./dotaccentcomb ,:/dotaccentcomb ;/dotaccentcomb ./ellipsis !¡?¿·/bullet *#///backslash (){}[]-/endash/emdash _/quotesinglbase/quotedblbase/quotedblleft/quotedblright/quoteleft/quoteright «»/guilsinglleft/guilsinglright \"'/space @&§©/trademark °|$/euro +/minus ×÷=/notequal ><%/dieresiscomb/dotaccentcomb/gravecomb/acutecomb/circumflexcomb/ringcomb/tildecomb/cedillacomb/strokeshortcomb/slashlongcomb ¨/dotaccent `´/hungarumlaut/circumflex/caron/breve/ring/tilde ¯¸/ogonek/aEgrave/IAacute/unbenannt/quotecomb/istrokecomp",
"'",
"/quotecomb",
"/quoteright",
"/quoteleft",
"?",
"¿",
"ô",
"ó",
"`",
"´",
"/acutecomb",
"/ycircumflex",
"ý",
"/ygrave",
"/wgrave",
"/wacute",
"ù",
"ò",
"ì",
"í",
"î",
"è",
"é",
"å",
"/ring",
"/ringcomb",
"¡",
"ß",
"/wcircumflex",
"û",
"â",
"á",
"à",
"/Ygrave",
"/Wdieresis",
"/Wcircumflex",
"/Wacute",
"/Ycircumflex",
"Ý",
"/Wgrave",
"Ù",
"Ò",
"Ô",
"Ó",
"Î",
"Ì",
"Ï",
"Ë",
"Ê",
"É",
"Á",
"Å",
"À",
"Â",
"\"",
"/hungarumlaut"
);

glyphs = (
{
glyphname = A;
lastChange = "2024-06-21 06:39:49 +0000";
layers = (
{
layerId = "9DF75A15-0AF9-4389-BE6D-DBD1DB18A6A2";
paths = (
{
closed = 1;
nodes = (
"611 -1 LINE",
"350 710 LINE",
"247 710 LINE",
"-13 -1 LINE",
"95 -1 LINE",
"171 212 LINE",
"427 212 LINE",
"502 -1 LINE"
);
},
{
closed = 1;
nodes = (
"264 461 LINE SMOOTH",
"277 497 OFFCURVE",
"298 561 OFFCURVE",
"313 611 CURVE",
"285 611 LINE",
"300 561 OFFCURVE",
"320 497 OFFCURVE",
"334 461 CURVE SMOOTH",
"393 299 LINE",
"204 299 LINE"
);
}
);
width = 598;
}
);
unicode = 0041;
},
{
glyphname = AE;
lastChange = "2024-06-21 06:39:49 +0000";
layers = (
{
components = (
{
name = E;
transform = "{1, 0, 0, 1, 312, 0}";
}
);
guideLines = (
{
position = "{173, 622}";
}
);
layerId = "9DF75A15-0AF9-4389-BE6D-DBD1DB18A6A2";
paths = (
{
closed = 1;
nodes = (
"95 -1 LINE",
"171 212 LINE",
"445 212 LINE",
"445 299 LINE",
"204 299 LINE",
"264 461 LINE SMOOTH",
"277 496 OFFCURVE",
"302 574 OFFCURVE",
"318 625 CURVE",
"449 625 LINE",
"449 710 LINE",
"247 710 LINE",
"-13 -1 LINE"
);
}
);
width = 873;
}
);
leftMetricsKey = A;
rightMetricsKey = E;
unicode = 00C6;
},
{
glyphname = B;
lastChange = "2024-06-21 06:39:49 +0000";
layers = (
{
guideLines = (
{
position = "{-31, 323}";
},
{
angle = 90;
position = "{586, 579}";
}
);
layerId = "9DF75A15-0AF9-4389-BE6D-DBD1DB18A6A2";
paths = (
{
closed = 1;
nodes = (
"395 -1 LINE SMOOTH",
"520 -1 OFFCURVE",
"606 85 OFFCURVE",
"606 210 CURVE SMOOTH",
"606 291 OFFCURVE",
"565 350 OFFCURVE",
"489 378 CURVE",
"548 406 OFFCURVE",
"581 457 OFFCURVE",
"581 523 CURVE SMOOTH",
"581 633 OFFCURVE",
"503 710 OFFCURVE",
"391 710 CURVE SMOOTH",
"58 710 LINE",
"58 -1 LINE"
);
},
{
closed = 1;
nodes = (
"170 330 LINE",
"373 330 LINE SMOOTH",
"442 330 OFFCURVE",
"495 277 OFFCURVE",
"495 209 CURVE SMOOTH",
"495 137 OFFCURVE",
"450 88 OFFCURVE",
"382 88 CURVE SMOOTH",
"170 88 LINE"
);
},
{
closed = 1;
nodes = (
"170 620 LINE",
"374 621 LINE SMOOTH",
"431 621 OFFCURVE",
"469 580 OFFCURVE",
"469 520 CURVE SMOOTH",
"469 463 OFFCURVE",
"425 420 OFFCURVE",
"366 420 CURVE SMOOTH",
"170 420 LINE"
);
}
);
width = 632;
}
);
leftMetricsKey = H;
rightMetricsKey = O;
unicode = 0042;
},
{
glyphname = C;
lastChange = "2024-06-21 06:39:49 +0000";
layers = (
{
layerId = "9DF75A15-0AF9-4389-BE6D-DBD1DB18A6A2";
paths = (
{
closed = 1;
nodes = (
"540 -16 OFFCURVE",
"660 87 OFFCURVE",
"685 252 CURVE",
"570 252 LINE",
"554 139 OFFCURVE",
"483 75 OFFCURVE",
"377 75 CURVE SMOOTH",
"236 75 OFFCURVE",
"141 188 OFFCURVE",
"141 353 CURVE SMOOTH",
"141 521 OFFCURVE",
"235 635 OFFCURVE",
"375 635 CURVE SMOOTH",
"474 635 OFFCURVE",
"545 577 OFFCURVE",
"564 478 CURVE",
"684 478 LINE",
"652 632 OFFCURVE",
"534 726 OFFCURVE",
"373 726 CURVE SMOOTH",
"170 726 OFFCURVE",
"26 571 OFFCURVE",
"26 354 CURVE SMOOTH",
"26 138 OFFCURVE",
"170 -16 OFFCURVE",
"373 -16 CURVE SMOOTH"
);
}
);
width = 710;
}
);
leftMetricsKey = O;
rightMetricsKey = O;
unicode = 0043;
},
{
glyphname = D;
lastChange = "2024-06-21 06:39:49 +0000";
layers = (
{
layerId = "9DF75A15-0AF9-4389-BE6D-DBD1DB18A6A2";
paths = (
{
closed = 1;
nodes = (
"333 -1 LINE SMOOTH",
"528 -1 OFFCURVE",
"665 147 OFFCURVE",
"665 355 CURVE SMOOTH",
"665 565 OFFCURVE",
"529 712 OFFCURVE",
"333 711 CURVE SMOOTH",
"58 710 LINE",
"58 -1 LINE"
);
},
{
closed = 1;
nodes = (
"170 621 LINE",
"327 621 LINE SMOOTH",
"460 621 OFFCURVE",
"551 511 OFFCURVE",
"551 354 CURVE SMOOTH",
"551 200 OFFCURVE",
"459 88 OFFCURVE",
"330 88 CURVE SMOOTH",
"170 88 LINE"
);
}
);
width = 692;
}
);
leftMetricsKey = H;
rightMetricsKey = O;
unicode = 0044;
},
{
glyphname = E;
lastChange = "2024-06-21 06:39:49 +0000";
layers = (
{
layerId = "9DF75A15-0AF9-4389-BE6D-DBD1DB18A6A2";
paths = (
{
closed = 1;
nodes = (
"534 0 LINE",
"534 86 LINE",
"252 86 LINE SMOOTH",
"230 86 OFFCURVE",
"191 85 OFFCURVE",
"170 85 CURVE",
"170 315 LINE",
"191 315 OFFCURVE",
"230 314 OFFCURVE",
"252 314 CURVE SMOOTH",
"515 314 LINE",
"515 401 LINE",
"252 401 LINE SMOOTH",
"230 401 OFFCURVE",
"191 400 OFFCURVE",
"170 400 CURVE",
"170 624 LINE",
"191 624 OFFCURVE",
"230 624 OFFCURVE",
"252 624 CURVE SMOOTH",
"525 624 LINE",
"525 710 LINE",
"58 710 LINE",
"58 0 LINE"
);
}
);
width = 561;
}
);
leftMetricsKey = H;
rightMetricsKey = O;
unicode = 0045;
},
{
glyphname = F;
lastChange = "2024-06-21 06:39:49 +0000";
layers = (
{
layerId = "9DF75A15-0AF9-4389-BE6D-DBD1DB18A6A2";
paths = (
{
closed = 1;
nodes = (
"170 -1 LINE",
"170 315 LINE",
"486 315 LINE",
"486 402 LINE",
"252 402 LINE SMOOTH",
"230 402 OFFCURVE",
"191 401 OFFCURVE",
"170 400 CURVE",
"170 625 LINE",
"191 625 OFFCURVE",
"230 624 OFFCURVE",
"252 624 CURVE SMOOTH",
"525 624 LINE",
"525 710 LINE",
"58 710 LINE",
"58 -1 LINE"
);
}
);
width = 551;
}
);
leftMetricsKey = H;
rightKerningGroup = F;
rightMetricsKey = O;
unicode = 0046;
},
{
glyphname = G;
lastChange = "2024-06-21 06:39:49 +0000";
layers = (
{
guideLines = (
{
position = "{798, 480}";
}
);
layerId = "9DF75A15-0AF9-4389-BE6D-DBD1DB18A6A2";
paths = (
{
closed = 1;
nodes = (
"482 -16 OFFCURVE",
"594 53 OFFCURVE",
"625 146 CURVE",
"597 148 LINE",
"597 -1 LINE",
"695 -1 LINE",
"695 380 LINE",
"370 380 LINE",
"370 294 LINE",
"498 294 LINE SMOOTH",
"521 294 OFFCURVE",
"552 295 OFFCURVE",
"572 296 CURVE",
"573 296 OFFCURVE",
"575 296 OFFCURVE",
"576 296 CURVE",
"560 165 OFFCURVE",
"477 75 OFFCURVE",
"373 75 CURVE SMOOTH",
"238 75 OFFCURVE",
"141 192 OFFCURVE",
"141 353 CURVE SMOOTH",
"141 517 OFFCURVE",
"237 634 OFFCURVE",
"373 634 CURVE SMOOTH",
"471 634 OFFCURVE",
"534 582 OFFCURVE",
"564 478 CURVE",
"680 478 LINE",
"643 635 OFFCURVE",
"530 725 OFFCURVE",
"373 725 CURVE SMOOTH",
"170 725 OFFCURVE",
"26 570 OFFCURVE",
"26 354 CURVE SMOOTH",
"26 136 OFFCURVE",
"163 -16 OFFCURVE",
"364 -16 CURVE SMOOTH"
);
}
);
width = 753;
}
);
leftMetricsKey = O;
rightMetricsKey = H;
unicode = 0047;
},
{
glyphname = H;
lastChange = "2024-06-21 06:39:49 +0000";
layers = (
{
layerId = "9DF75A15-0AF9-4389-BE6D-DBD1DB18A6A2";
paths = (
{
closed = 1;
nodes = (
"632 -1 LINE",
"632 710 LINE",
"521 710 LINE",
"521 407 LINE",
"503 408 OFFCURVE",
"474 408 OFFCURVE",
"451 408 CURVE SMOOTH",
"243 408 LINE SMOOTH",
"220 408 OFFCURVE",
"188 408 OFFCURVE",
"170 407 CURVE",
"170 710 LINE",
"58 710 LINE",
"58 -1 LINE",
"170 -1 LINE",
"170 323 LINE",
"188 323 OFFCURVE",
"220 322 OFFCURVE",
"243 322 CURVE SMOOTH",
"451 322 LINE SMOOTH",
"474 322 OFFCURVE",
"503 323 OFFCURVE",
"521 323 CURVE",
"521 -1 LINE"
);
}
);
width = 691;
}
);
unicode = 0048;
},
{
glyphname = I;
lastChange = "2024-06-21 06:39:49 +0000";
layers = (
{
layerId = "9DF75A15-0AF9-4389-BE6D-DBD1DB18A6A2";
paths = (
{
closed = 1;
nodes = (
"170 -1 LINE",
"170 710 LINE",
"58 710 LINE",
"58 -1 LINE"
);
}
);
width = 228;
}
);
leftMetricsKey = H;
rightMetricsKey = H;
unicode = 0049;
},
{
glyphname = J;
lastChange = "2024-06-21 06:39:49 +0000";
layers = (
{
layerId = "9DF75A15-0AF9-4389-BE6D-DBD1DB18A6A2";
paths = (
{
closed = 1;
nodes = (
"343 -16 OFFCURVE",
"423 68 OFFCURVE",
"423 212 CURVE SMOOTH",
"424 710 LINE",
"312 710 LINE",
"312 200 LINE SMOOTH",
"312 110 OFFCURVE",
"279 68 OFFCURVE",
"208 68 CURVE SMOOTH",
"135 68 OFFCURVE",
"99 113 OFFCURVE",
"102 202 CURVE",
"-10 202 LINE",
"-14 70 OFFCURVE",
"74 -16 OFFCURVE",
"208 -16 CURVE SMOOTH"
);
}
);
width = 482;
}
);
leftMetricsKey = V;
rightMetricsKey = H;
unicode = 004A;
},
{
glyphname = K;
lastChange = "2024-06-21 06:39:49 +0000";
layers = (
{
layerId = "9DF75A15-0AF9-4389-BE6D-DBD1DB18A6A2";
paths = (
{
closed = 1;
nodes = (
"170 -1 LINE",
"170 249 LINE",
"273 355 LINE",
"531 0 LINE",
"653 0 LINE",
"342 425 LINE",
"622 711 LINE",
"487 711 LINE",
"169 388 LINE",
"170 712 LINE",
"59 712 LINE",
"58 -1 LINE"
);
}
);
width = 631;
}
);
leftMetricsKey = H;
unicode = 004B;
},
{
glyphname = L;
lastChange = "2024-06-21 06:39:49 +0000";
layers = (
{
layerId = "9DF75A15-0AF9-4389-BE6D-DBD1DB18A6A2";
paths = (
{
closed = 1;
nodes = (
"524 -1 LINE",
"524 89 LINE",
"252 89 LINE SMOOTH",
"230 89 OFFCURVE",
"191 88 OFFCURVE",
"170 88 CURVE",
"170 710 LINE",
"58 710 LINE",
"58 -1 LINE"
);
}
);
width = 514;
}
);
leftMetricsKey = H;
rightMetricsKey = V;
unicode = 004C;
},
{
glyphname = M;
lastChange = "2024-06-21 06:39:49 +0000";
layers = (
{
guideLines = (
{
position = "{-151, 430}";
}
);
layerId = "9DF75A15-0AF9-4389-BE6D-DBD1DB18A6A2";
paths = (
{
closed = 1;
nodes = (
"492 -1 LINE",
"683 432 LINE SMOOTH",
"695 460 OFFCURVE",
"717 512 OFFCURVE",
"735 557 CURVE",
"707 561 LINE",
"707 -1 LINE",
"819 -1 LINE",
"819 710 LINE",
"697 710 LINE",
"489 244 LINE SMOOTH",
"475 212 OFFCURVE",
"457 168 OFFCURVE",
"441 128 CURVE",
"425 168 OFFCURVE",
"408 212 OFFCURVE",
"394 244 CURVE SMOOTH",
"186 710 LINE",
"58 710 LINE",
"58 -1 LINE",
"170 -1 LINE",
"170 576 LINE",
"142 573 LINE",
"162 522 OFFCURVE",
"186 463 OFFCURVE",
"200 432 CURVE SMOOTH",
"391 -1 LINE"
);
}
);
width = 877;
}
);
leftMetricsKey = H;
rightMetricsKey = H;
unicode = 004D;
},
{
glyphname = N;
lastChange = "2024-06-21 06:39:49 +0000";
layers = (
{
guideLines = (
{
position = "{-102, 442}";
},
{
position = "{-49, 239}";
}
);
layerId = "9DF75A15-0AF9-4389-BE6D-DBD1DB18A6A2";
paths = (
{
closed = 1;
nodes = (
"603 -1 LINE",
"603 710 LINE",
"492 710 LINE",
"492 136 LINE",
"519 140 LINE",
"494 185 OFFCURVE",
"475 218 OFFCURVE",
"460 243 CURVE SMOOTH",
"165 710 LINE",
"58 710 LINE",
"58 -1 LINE",
"170 -1 LINE",
"170 574 LINE",
"142 570 LINE",
"168 522 OFFCURVE",
"195 477 OFFCURVE",
"216 443 CURVE SMOOTH",
"497 -1 LINE"
);
}
);
width = 662;
}
);
leftMetricsKey = H;
rightMetricsKey = H;
unicode = 004E;
},
{
glyphname = O;
lastChange = "2024-06-21 06:39:49 +0000";
layers = (
{
layerId = "9DF75A15-0AF9-4389-BE6D-DBD1DB18A6A2";
paths = (
{
closed = 1;
nodes = (
"576 -16 OFFCURVE",
"720 138 OFFCURVE",
"720 354 CURVE SMOOTH",
"720 572 OFFCURVE",
"578 725 OFFCURVE",
"373 725 CURVE SMOOTH",
"170 725 OFFCURVE",
"26 570 OFFCURVE",
"26 354 CURVE SMOOTH",
"26 139 OFFCURVE",
"171 -16 OFFCURVE",
"373 -16 CURVE SMOOTH"
);
},
{
closed = 1;
nodes = (
"141 518 OFFCURVE",
"235 634 OFFCURVE",
"372 634 CURVE SMOOTH",
"512 634 OFFCURVE",
"606 520 OFFCURVE",
"606 353 CURVE SMOOTH",
"606 190 OFFCURVE",
"510 75 OFFCURVE",
"372 75 CURVE SMOOTH",
"236 75 OFFCURVE",
"141 191 OFFCURVE",
"141 353 CURVE SMOOTH"
);
}
);
width = 746;
}
);
unicode = 004F;
},
{
glyphname = P;
lastChange = "2024-06-21 06:39:49 +0000";
layers = (
{
layerId = "9DF75A15-0AF9-4389-BE6D-DBD1DB18A6A2";
paths = (
{
closed = 1;
nodes = (
"390 270 LINE SMOOTH",
"513 270 OFFCURVE",
"599 360 OFFCURVE",
"599 490 CURVE SMOOTH",
"599 620 OFFCURVE",
"514 710 OFFCURVE",
"390 710 CURVE SMOOTH",
"58 710 LINE",
"58 -1 LINE",
"170 -1 LINE",
"170 270 LINE"
);
},
{
closed = 1;
nodes = (
"170 624 LINE",
"380 624 LINE SMOOTH",
"445 624 OFFCURVE",
"487 571 OFFCURVE",
"487 489 CURVE SMOOTH",
"487 410 OFFCURVE",
"444 355 OFFCURVE",
"380 355 CURVE SMOOTH",
"170 356 LINE"
);
}
);
width = 626;
}
);
leftMetricsKey = H;
rightKerningGroup = P;
rightMetricsKey = O;
unicode = 0050;
},
{
glyphname = Thorn;
lastChange = "2024-06-21 06:39:49 +0000";
layers = (
{
layerId = "9DF75A15-0AF9-4389-BE6D-DBD1DB18A6A2";
paths = (
{
closed = 1;
nodes = (
"170 -1 LINE",
"170 159 LINE",
"390 159 LINE SMOOTH",
"513 159 OFFCURVE",
"599 250 OFFCURVE",
"599 379 CURVE SMOOTH",
"599 510 OFFCURVE",
"514 599 OFFCURVE",
"390 599 CURVE SMOOTH",
"170 599 LINE",
"170 710 LINE",
"58 710 LINE",
"58 -1 LINE"
);
},
{
closed = 1;
nodes = (
"170 513 LINE",
"380 513 LINE SMOOTH",
"445 513 OFFCURVE",
"487 460 OFFCURVE",
"487 378 CURVE SMOOTH",
"487 299 OFFCURVE",
"444 244 OFFCURVE",
"380 244 CURVE SMOOTH",
"170 245 LINE"
);
}
);
width = 626;
}
);
leftMetricsKey = P;
rightMetricsKey = P;
unicode = 00DE;
},
{
glyphname = Q;
lastChange = "2024-06-21 06:39:49 +0000";
layers = (
{
layerId = "9DF75A15-0AF9-4389-BE6D-DBD1DB18A6A2";
paths = (
{
closed = 1;
nodes = (
"577 48 LINE",
"668 115 OFFCURVE",
"720 226 OFFCURVE",
"720 354 CURVE SMOOTH",
"720 572 OFFCURVE",
"578 725 OFFCURVE",
"373 725 CURVE SMOOTH",
"170 725 OFFCURVE",
"26 570 OFFCURVE",
"26 354 CURVE SMOOTH",
"26 139 OFFCURVE",
"171 -16 OFFCURVE",
"373 -16 CURVE SMOOTH",
"414 -16 OFFCURVE",
"454 -9 OFFCURVE",
"489 3 CURVE",
"535 -56 LINE",
"659 -56 LINE"
);
},
{
closed = 1;
nodes = (
"141 518 OFFCURVE",
"235 634 OFFCURVE",
"372 634 CURVE SMOOTH",
"512 634 OFFCURVE",
"606 520 OFFCURVE",
"606 353 CURVE SMOOTH",
"606 259 OFFCURVE",
"572 175 OFFCURVE",
"515 126 CURVE",
"474 178 LINE",
"351 178 LINE",
"427 81 LINE",
"410 77 OFFCURVE",
"392 75 OFFCURVE",
"372 75 CURVE SMOOTH",
"236 75 OFFCURVE",
"141 191 OFFCURVE",
"141 353 CURVE SMOOTH"
);
}
);
width = 746;
}
);
leftMetricsKey = O;
rightMetricsKey = O;
unicode = 0051;
},
{
glyphname = R;
lastChange = "2024-06-21 06:39:49 +0000";
layers = (
{
layerId = "9DF75A15-0AF9-4389-BE6D-DBD1DB18A6A2";
paths = (
{
closed = 1;
nodes = (
"338 266 LINE",
"524 -1 LINE",
"645 -1 LINE",
"452 275 LINE",
"542 300 OFFCURVE",
"599 382 OFFCURVE",
"599 488 CURVE SMOOTH",
"599 619 OFFCURVE",
"514 710 OFFCURVE",
"390 710 CURVE SMOOTH",
"58 710 LINE",
"58 -1 LINE",
"170 -1 LINE",
"170 266 LINE"
);
},
{
closed = 1;
nodes = (
"170 624 LINE",
"380 624 LINE SMOOTH",
"443 624 OFFCURVE",
"487 567 OFFCURVE",
"487 487 CURVE SMOOTH",
"487 409 OFFCURVE",
"442 351 OFFCURVE",
"380 351 CURVE SMOOTH",
"170 352 LINE"
);
}
);
width = 638;
}
);
leftMetricsKey = H;
rightKerningGroup = R;
unicode = 0052;
},
{
glyphname = S;
lastChange = "2024-06-21 06:39:49 +0000";
layers = (
{
guideLines = (
{
angle = 90;
position = "{496, 480}";
},
{
angle = 90;
position = "{119, 330}";
}
);
layerId = "9DF75A15-0AF9-4389-BE6D-DBD1DB18A6A2";
paths = (
{
closed = 1;
nodes = (
"510 -22 OFFCURVE",
"630 63 OFFCURVE",
"630 197 CURVE SMOOTH",
"630 351 OFFCURVE",
"480 386 OFFCURVE",
"364 414 CURVE SMOOTH",
"244 444 OFFCURVE",
"164 469 OFFCURVE",
"164 538 CURVE SMOOTH",
"164 596 OFFCURVE",
"225 635 OFFCURVE",
"314 635 CURVE SMOOTH",
"429 635 OFFCURVE",
"488 589 OFFCURVE",
"498 493 CURVE",
"609 492 LINE",
"596 637 OFFCURVE",
"490 726 OFFCURVE",
"331 726 CURVE SMOOTH",
"158 726 OFFCURVE",
"49 650 OFFCURVE",
"49 527 CURVE SMOOTH",
"49 390 OFFCURVE",
"202 354 OFFCURVE",
"322 327 CURVE SMOOTH",
"466 295 OFFCURVE",
"516 260 OFFCURVE",
"515 192 CURVE SMOOTH",
"514 121 OFFCURVE",
"445 71 OFFCURVE",
"351 74 CURVE SMOOTH",
"215 78 OFFCURVE",
"149 130 OFFCURVE",
"137 244 CURVE",
"26 246 LINE",
"34 87 OFFCURVE",
"149 -11 OFFCURVE",
"330 -16 CURVE SMOOTH"
);
}
);
width = 656;
}
);
leftMetricsKey = O;
rightMetricsKey = O;
unicode = 0053;
},
{
glyphname = T;
lastChange = "2024-06-21 06:39:49 +0000";
layers = (
{
layerId = "9DF75A15-0AF9-4389-BE6D-DBD1DB18A6A2";
paths = (
{
closed = 1;
nodes = (
"324 -1 LINE",
"324 535 LINE SMOOTH",
"324 562 OFFCURVE",
"322 605 OFFCURVE",
"321 624 CURVE",
"544 624 LINE",
"544 710 LINE",
"-10 710 LINE",
"-10 624 LINE",
"213 624 LINE",
"213 605 OFFCURVE",
"212 562 OFFCURVE",
"212 535 CURVE SMOOTH",
"212 -1 LINE"
);
}
);
width = 534;
}
);
leftKerningGroup = T;
leftMetricsKey = V;
rightKerningGroup = T;
rightMetricsKey = V;
unicode = 0054;
},
{
glyphname = U;
lastChange = "2024-06-21 06:39:49 +0000";
layers = (
{
layerId = "9DF75A15-0AF9-4389-BE6D-DBD1DB18A6A2";
paths = (
{
closed = 1;
nodes = (
"511 -16 OFFCURVE",
"611 97 OFFCURVE",
"611 296 CURVE SMOOTH",
"611 710 LINE",
"500 710 LINE",
"500 275 LINE SMOOTH",
"500 146 OFFCURVE",
"439 75 OFFCURVE",
"334 75 CURVE SMOOTH",
"230 75 OFFCURVE",
"170 147 OFFCURVE",
"170 275 CURVE SMOOTH",
"170 710 LINE",
"58 710 LINE",
"58 296 LINE SMOOTH",
"58 98 OFFCURVE",
"159 -16 OFFCURVE",
"335 -16 CURVE SMOOTH"
);
}
);
width = 669;
}
);
leftMetricsKey = H;
rightMetricsKey = H;
unicode = 0055;
},
{
glyphname = V;
lastChange = "2024-06-21 06:39:49 +0000";
layers = (
{
layerId = "9DF75A15-0AF9-4389-BE6D-DBD1DB18A6A2";
paths = (
{
closed = 1;
nodes = (
"340 -1 LINE",
"586 711 LINE",
"478 711 LINE",
"331 283 LINE SMOOTH",
"313 233 OFFCURVE",
"273 97 OFFCURVE",
"273 97 CURVE",
"301 97 LINE",
"301 97 OFFCURVE",
"260 233 OFFCURVE",
"243 283 CURVE SMOOTH",
"95 711 LINE",
"-13 711 LINE",
"236 -1 LINE"
);
}
);
width = 573;
}
);
leftKerningGroup = V;
rightKerningGroup = V;
unicode = 0056;
},
{
glyphname = W;
lastChange = "2024-06-21 06:39:49 +0000";
layers = (
{
guideLines = (
{
position = "{-97, 275}";
}
);
layerId = "9DF75A15-0AF9-4389-BE6D-DBD1DB18A6A2";
paths = (
{
closed = 1;
nodes = (
"713 0 LINE",
"926 711 LINE",
"818 711 LINE",
"691 279 LINE SMOOTH",
"678 234 OFFCURVE",
"650 116 OFFCURVE",
"650 116 CURVE",
"679 117 LINE",
"679 117 OFFCURVE",
"650 234 OFFCURVE",
"637 279 CURVE SMOOTH",
"508 711 LINE",
"406 711 LINE",
"277 277 LINE SMOOTH",
"264 233 OFFCURVE",
"236 116 OFFCURVE",
"236 116 CURVE",
"264 117 LINE",
"264 117 OFFCURVE",
"236 233 OFFCURVE",
"223 277 CURVE SMOOTH",
"96 711 LINE",
"-12 711 LINE",
"200 0 LINE",
"299 0 LINE",
"471 574 LINE",
"443 574 LINE",
"615 0 LINE"
);
}
);
width = 914;
}
);
leftMetricsKey = V;
rightKerningGroup = V;
rightMetricsKey = V;
unicode = 0057;
},
{
glyphname = X;
lastChange = "2024-06-21 06:39:49 +0000";
layers = (
{
guideLines = (
{
position = "{-147, 519}";
},
{
position = "{-147, 181}";
},
{
angle = 90;
position = "{189, -370}";
},
{
angle = 90;
position = "{397, -370}";
}
);
layerId = "9DF75A15-0AF9-4389-BE6D-DBD1DB18A6A2";
paths = (
{
closed = 1;
nodes = (
"183 451 LINE SMOOTH",
"200 423 OFFCURVE",
"240 361 OFFCURVE",
"240 361 CURVE",
"240 370 LINE",
"240 370 OFFCURVE",
"201 309 OFFCURVE",
"184 281 CURVE SMOOTH",
"20 20 LINE",
"136 20 LINE",
"294 273 LINE",
"355 175 LINE",
"466 -1 LINE",
"582 -1 LINE",
"421 257 LINE SMOOTH",
"399 292 OFFCURVE",
"349 370 OFFCURVE",
"351 369 CURVE",
"366 387 OFFCURVE",
"404 446 OFFCURVE",
"423 476 CURVE SMOOTH",
"582 731 LINE",
"466 731 LINE",
"340 531 LINE",
"294 457 LINE",
"136 710 LINE",
"20 710 LINE"
);
}
);
width = 602;
}
);
leftMetricsKey = O;
rightMetricsKey = O;
unicode = 0058;
},
{
glyphname = Y;
lastChange = "2024-06-21 06:39:49 +0000";
layers = (
{
guideLines = (
{
position = "{-66, 443}";
}
);
layerId = "9DF75A15-0AF9-4389-BE6D-DBD1DB18A6A2";
paths = (
{
closed = 1;
nodes = (
"342 -1 LINE",
"342 319 LINE",
"588 711 LINE",
"471 711 LINE",
"310 454 LINE SMOOTH",
"302 442 OFFCURVE",
"293 427 OFFCURVE",
"286 415 CURVE",
"280 427 OFFCURVE",
"271 441 OFFCURVE",
"263 453 CURVE SMOOTH",
"101 711 LINE",
"-16 711 LINE",
"231 319 LINE",
"231 -1 LINE"
);
}
);
width = 572;
}
);
leftMetricsKey = V;
rightKerningGroup = V;
rightMetricsKey = V;
unicode = 0059;
},
{
glyphname = Z;
lastChange = "2024-06-21 06:39:49 +0000";
layers = (
{
layerId = "9DF75A15-0AF9-4389-BE6D-DBD1DB18A6A2";
paths = (
{
closed = 1;
nodes = (
"579 -1 LINE",
"579 85 LINE",
"176 85 LINE",
"579 667 LINE",
"579 710 LINE",
"26 710 LINE",
"26 624 LINE",
"430 624 LINE",
"26 43 LINE",
"26 -1 LINE"
);
}
);
width = 605;
}
);
leftMetricsKey = O;
rightKerningGroup = Z;
rightMetricsKey = O;
unicode = 005A;
},
{
glyphname = a;
lastChange = "2024-06-21 06:39:49 +0000";
layers = (
{
anchors = (
{
name = top;
position = "{265, 502}";
}
);
layerId = "9DF75A15-0AF9-4389-BE6D-DBD1DB18A6A2";
paths = (
{
closed = 1;
nodes = (
"459 465 OFFCURVE",
"377 532 OFFCURVE",
"249 532 CURVE SMOOTH",
"137 532 OFFCURVE",
"48 456 OFFCURVE",
"42 356 CURVE",
"153 356 LINE",
"155 415 OFFCURVE",
"191 445 OFFCURVE",
"260 445 CURVE SMOOTH",
"325 445 OFFCURVE",
"356 410 OFFCURVE",
"356 336 CURVE SMOOTH",
"356 313 LINE",
"329 315 OFFCURVE",
"275 318 OFFCURVE",
"225 312 CURVE SMOOTH",
"97 297 OFFCURVE",
"27 239 OFFCURVE",
"27 146 CURVE SMOOTH",
"27 60 OFFCURVE",
"109 -14 OFFCURVE",
"202 -14 CURVE SMOOTH",
"296 -14 OFFCURVE",
"342 21 OFFCURVE",
"365 46 CURVE",
"379 14 OFFCURVE",
"410 -1 OFFCURVE",
"460 -1 CURVE SMOOTH",
"493 -1 OFFCURVE",
"507 6 OFFCURVE",
"507 6 CURVE",
"516 14 LINE",
"516 92 LINE",
"472 78 OFFCURVE",
"459 80 OFFCURVE",
"459 125 CURVE SMOOTH",
"459 361 LINE SMOOTH"
);
},
{
closed = 1;
nodes = (
"136 195 OFFCURVE",
"173 230 OFFCURVE",
"238 237 CURVE SMOOTH",
"296 243 OFFCURVE",
"334 243 OFFCURVE",
"356 242 CURVE",
"357 182 LINE",
"357 182 LINE",
"351 123 OFFCURVE",
"291 70 OFFCURVE",
"227 70 CURVE SMOOTH",
"174 70 OFFCURVE",
"136 99 OFFCURVE",
"136 141 CURVE SMOOTH"
);
}
);
width = 535;
}
);
leftMetricsKey = o;
rightKerningGroup = a;
rightMetricsKey = f;
unicode = 0061;
},
{
glyphname = ae;
lastChange = "2024-06-21 06:39:49 +0000";
layers = (
{
components = (
{
alignment = -1;
name = e;
transform = "{1, 0, 0, 1, 338, 0}";
}
);
layerId = "9DF75A15-0AF9-4389-BE6D-DBD1DB18A6A2";
paths = (
{
closed = 1;
nodes = (
"176 64 OFFCURVE",
"137 95 OFFCURVE",
"137 143 CURVE SMOOTH",
"137 188 OFFCURVE",
"168 211 OFFCURVE",
"256 230 CURVE SMOOTH",
"292 238 OFFCURVE",
"328 246 OFFCURVE",
"357 257 CURVE",
"357 227 LINE SMOOTH",
"357 136 OFFCURVE",
"303 64 OFFCURVE",
"237 64 CURVE SMOOTH"
);
},
{
closed = 1;
nodes = (
"27 58 OFFCURVE",
"113 -16 OFFCURVE",
"215 -16 CURVE SMOOTH",
"331 -16 OFFCURVE",
"406 52 OFFCURVE",
"414 165 CURVE",
"414 164 LINE",
"459 385 LINE",
"458 475 OFFCURVE",
"377 531 OFFCURVE",
"249 531 CURVE SMOOTH",
"129 531 OFFCURVE",
"50 464 OFFCURVE",
"42 355 CURVE",
"151 355 LINE",
"155 422 OFFCURVE",
"191 454 OFFCURVE",
"260 454 CURVE SMOOTH",
"315 454 OFFCURVE",
"355 426 OFFCURVE",
"355 387 CURVE SMOOTH",
"355 341 OFFCURVE",
"312 330 OFFCURVE",
"223 308 CURVE SMOOTH",
"116 285 OFFCURVE",
"27 260 OFFCURVE",
"27 147 CURVE SMOOTH"
);
}
);
width = 888;
}
);
leftMetricsKey = a;
rightMetricsKey = e;
unicode = 00E6;
},
{
glyphname = b;
lastChange = "2024-06-21 06:39:49 +0000";
layers = (
{
layerId = "9DF75A15-0AF9-4389-BE6D-DBD1DB18A6A2";
paths = (
{
closed = 1;
nodes = (
"451 -16 OFFCURVE",
"541 99 OFFCURVE",
"541 258 CURVE SMOOTH",
"541 417 OFFCURVE",
"451 531 OFFCURVE",
"325 531 CURVE SMOOTH",
"257 531 OFFCURVE",
"201 503 OFFCURVE",
"168 470 CURVE",
"168 712 LINE",
"60 712 LINE",
"60 -1 LINE",
"168 -1 LINE",
"168 45 LINE",
"201 12 OFFCURVE",
"257 -16 OFFCURVE",
"325 -16 CURVE SMOOTH"
);
},
{
closed = 1;
nodes = (
"168 371 OFFCURVE",
"221 446 OFFCURVE",
"301 446 CURVE SMOOTH",
"377 446 OFFCURVE",
"432 368 OFFCURVE",
"432 257 CURVE SMOOTH",
"432 147 OFFCURVE",
"377 70 OFFCURVE",
"301 70 CURVE SMOOTH",
"221 70 OFFCURVE",
"168 144 OFFCURVE",
"168 257 CURVE SMOOTH"
);
}
);
width = 568;
}
);
leftMetricsKey = n;
rightMetricsKey = o;
unicode = 0062;
},
{
glyphname = c;
lastChange = "2024-06-21 06:39:49 +0000";
layers = (
{
layerId = "9DF75A15-0AF9-4389-BE6D-DBD1DB18A6A2";
paths = (
{
closed = 1;
nodes = (
"407 -16 OFFCURVE",
"498 59 OFFCURVE",
"517 177 CURVE",
"409 177 LINE",
"396 113 OFFCURVE",
"345 71 OFFCURVE",
"284 71 CURVE SMOOTH",
"198 71 OFFCURVE",
"137 148 OFFCURVE",
"137 255 CURVE SMOOTH",
"137 366 OFFCURVE",
"197 442 OFFCURVE",
"285 442 CURVE SMOOTH",
"344 442 OFFCURVE",
"395 399 OFFCURVE",
"409 337 CURVE",
"518 337 LINE",
"499 453 OFFCURVE",
"407 529 OFFCURVE",
"284 529 CURVE SMOOTH",
"134 529 OFFCURVE",
"27 415 OFFCURVE",
"27 256 CURVE SMOOTH",
"27 97 OFFCURVE",
"134 -16 OFFCURVE",
"284 -16 CURVE SMOOTH"
);
}
);
width = 537;
}
);
leftMetricsKey = o;
unicode = 0063;
},
{
glyphname = d;
lastChange = "2024-06-21 06:39:49 +0000";
layers = (
{
layerId = "9DF75A15-0AF9-4389-BE6D-DBD1DB18A6A2";
paths = (
{
closed = 1;
nodes = (
"311 -16 OFFCURVE",
"367 12 OFFCURVE",
"401 45 CURVE",
"401 -1 LINE",
"508 -1 LINE",
"508 712 LINE",
"401 712 LINE",
"401 470 LINE",
"367 503 OFFCURVE",
"311 531 OFFCURVE",
"243 531 CURVE SMOOTH",
"118 531 OFFCURVE",
"27 417 OFFCURVE",
"27 258 CURVE SMOOTH",
"27 99 OFFCURVE",
"118 -16 OFFCURVE",
"243 -16 CURVE SMOOTH"
);
},
{
closed = 1;
nodes = (
"137 368 OFFCURVE",
"191 446 OFFCURVE",
"268 446 CURVE SMOOTH",
"348 446 OFFCURVE",
"401 371 OFFCURVE",
"401 257 CURVE SMOOTH",
"401 144 OFFCURVE",
"347 70 OFFCURVE",
"268 70 CURVE SMOOTH",
"191 70 OFFCURVE",
"137 147 OFFCURVE",
"137 257 CURVE SMOOTH"
);
}
);
width = 568;
}
);
leftMetricsKey = o;
rightMetricsKey = n;
unicode = 0064;
},
{
glyphname = e;
lastChange = "2024-06-21 06:39:49 +0000";
layers = (
{
guideLines = (
{
position = "{7, 174}";
}
);
layerId = "9DF75A15-0AF9-4389-BE6D-DBD1DB18A6A2";
paths = (
{
closed = 1;
nodes = (
"401 -15 OFFCURVE",
"489 55 OFFCURVE",
"514 167 CURVE",
"407 167 LINE",
"389 105 OFFCURVE",
"344 68 OFFCURVE",
"284 68 CURVE SMOOTH",
"199 68 OFFCURVE",
"143 133 OFFCURVE",
"135 238 CURVE",
"158 237 OFFCURVE",
"193 237 OFFCURVE",
"224 237 CURVE SMOOTH",
"523 237 LINE",
"523 258 LINE SMOOTH",
"523 426 OFFCURVE",
"431 531 OFFCURVE",
"284 531 CURVE SMOOTH",
"134 531 OFFCURVE",
"27 417 OFFCURVE",
"27 258 CURVE SMOOTH",
"27 99 OFFCURVE",
"134 -15 OFFCURVE",
"284 -15 CURVE SMOOTH"
);
},
{
closed = 1;
nodes = (
"158 407 OFFCURVE",
"204 449 OFFCURVE",
"285 449 CURVE SMOOTH",
"351 449 OFFCURVE",
"399 399 OFFCURVE",
"412 317 CURVE",
"224 317 LINE SMOOTH",
"195 317 OFFCURVE",
"163 317 OFFCURVE",
"140 316 CURVE"
);
}
);
width = 550;
}
);
leftMetricsKey = o;
rightMetricsKey = o;
unicode = 0065;
},
{
glyphname = f;
lastChange = "2024-06-21 06:43:12 +0000";
layers = (
{
layerId = "9DF75A15-0AF9-4389-BE6D-DBD1DB18A6A2";
paths = (
{
closed = 1;
nodes = (
"211 -1 LINE",
"211 359 LINE SMOOTH",
"211 387 OFFCURVE",
"210 445 OFFCURVE",
"210 445 CURVE",
"195 437 LINE",
"195 437 OFFCURVE",
"223 436 OFFCURVE",
"238 436 CURVE SMOOTH",
"319 436 LINE",
"319 518 LINE",
"238 518 LINE SMOOTH",
"230 518 OFFCURVE",
"219 518 OFFCURVE",
"211 517 CURVE",
"211 569 LINE SMOOTH",
"211 651 OFFCURVE",
"285 631 OFFCURVE",
"317 619 CURVE",
"317 703 LINE",
"317 703 OFFCURVE",
"264 714 OFFCURVE",
"229 711 CURVE SMOOTH",
"152 705 OFFCURVE",
"104 656 OFFCURVE",
"104 582 CURVE SMOOTH",
"104 558 OFFCURVE",
"105 508 OFFCURVE",
"105 508 CURVE",
"120 517 LINE",
"120 517 OFFCURVE",
"91 518 OFFCURVE",
"76 518 CURVE SMOOTH",
"15 518 LINE",
"15 436 LINE",
"76 436 LINE SMOOTH",
"91 436 OFFCURVE",
"120 437 OFFCURVE",
"120 437 CURVE",
"105 445 LINE",
"105 445 OFFCURVE",
"104 388 OFFCURVE",
"104 359 CURVE SMOOTH",
"104 -1 LINE"
);
}
);
width = 339;
}
);
unicode = 0066;
},
{
glyphname = g;
lastChange = "2024-06-21 06:43:47 +0000";
layers = (
{
layerId = "9DF75A15-0AF9-4389-BE6D-DBD1DB18A6A2";
paths = (
{
closed = 1;
nodes = (
"430 -177 OFFCURVE",
"519 -118 OFFCURVE",
"520 -19 CURVE SMOOTH",
"520 88 OFFCURVE",
"432 142 OFFCURVE",
"274 138 CURVE SMOOTH",
"199 136 OFFCURVE",
"172 144 OFFCURVE",
"172 169 CURVE SMOOTH",
"172 187 OFFCURVE",
"180 196 OFFCURVE",
"197 198 CURVE",
"219 190 OFFCURVE",
"243 186 OFFCURVE",
"266 186 CURVE SMOOTH",
"379 186 OFFCURVE",
"468 262 OFFCURVE",
"468 360 CURVE SMOOTH",
"468 396 OFFCURVE",
"456 428 OFFCURVE",
"432 458 CURVE",
"455 477 OFFCURVE",
"484 482 OFFCURVE",
"500 477 CURVE",
"500 552 LINE",
"500 552 OFFCURVE",
"482 562 OFFCURVE",
"453 562 CURVE SMOOTH",
"418 562 OFFCURVE",
"385 542 OFFCURVE",
"364 510 CURVE",
"335 524 OFFCURVE",
"300 532 OFFCURVE",
"266 532 CURVE SMOOTH",
"153 532 OFFCURVE",
"65 457 OFFCURVE",
"65 360 CURVE SMOOTH",
"65 315 OFFCURVE",
"84 274 OFFCURVE",
"121 241 CURVE",
"90 225 OFFCURVE",
"74 201 OFFCURVE",
"74 169 CURVE SMOOTH",
"74 146 OFFCURVE",
"82 126 OFFCURVE",
"99 107 CURVE",
"55 80 OFFCURVE",
"34 40 OFFCURVE",
"34 -18 CURVE SMOOTH",
"34 -118 OFFCURVE",
"127 -177 OFFCURVE",
"279 -177 CURVE SMOOTH"
);
},
{
closed = 1;
nodes = (
"142 33 OFFCURVE",
"176 51 OFFCURVE",
"277 51 CURVE SMOOTH",
"370 51 OFFCURVE",
"412 29 OFFCURVE",
"412 -18 CURVE SMOOTH",
"412 -64 OFFCURVE",
"366 -90 OFFCURVE",
"280 -90 CURVE SMOOTH",
"192 -90 OFFCURVE",
"142 -63 OFFCURVE",
"142 -18 CURVE"
);
},
{
closed = 1;
nodes = (
"173 415 OFFCURVE",
"206 445 OFFCURVE",
"267 445 CURVE SMOOTH",
"328 445 OFFCURVE",
"360 416 OFFCURVE",
"360 359 CURVE SMOOTH",
"360 301 OFFCURVE",
"329 273 OFFCURVE",
"267 273 CURVE SMOOTH",
"205 273 OFFCURVE",
"174 302 OFFCURVE",
"173 359 CURVE"
);
}
);
width = 539;
}
);
leftMetricsKey = s;
rightMetricsKey = f;
unicode = 0067;
},
{
glyphname = h;
lastChange = "2024-06-21 06:39:49 +0000";
layers = (
{
layerId = "9DF75A15-0AF9-4389-BE6D-DBD1DB18A6A2";
paths = (
{
closed = 1;
nodes = (
"168 391 OFFCURVE",
"229 446 OFFCURVE",
"300 446 CURVE SMOOTH",
"362 446 OFFCURVE",
"390 412 OFFCURVE",
"390 336 CURVE SMOOTH",
"390 -1 LINE",
"498 -1 LINE",
"498 371 LINE SMOOTH",
"498 465 OFFCURVE",
"426 532 OFFCURVE",
"324 532 CURVE SMOOTH",
"257 532 OFFCURVE",
"201 502 OFFCURVE",
"168 474 CURVE",
"168 711 LINE",
"60 711 LINE",
"60 -1 LINE",
"168 -1 LINE",
"168 331 LINE SMOOTH"
);
}
);
width = 558;
}
);
leftMetricsKey = n;
rightMetricsKey = n;
unicode = 0068;
},
{
glyphname = j;
lastChange = "2024-06-21 06:39:49 +0000";
layers = (
{
components = (
{
name = dotaccentcomb;
transform = "{1, 0, 0, 1, 69, 0}";
}
);
hints = (
{
horizontal = 1;
place = "{-93, 65}";
type = Stem;
}
);
layerId = "9DF75A15-0AF9-4389-BE6D-DBD1DB18A6A2";
paths = (
{
closed = 1;
nodes = (
"171 518 LINE",
"63 518 LINE",
"63 -23 LINE SMOOTH",
"63 -68 OFFCURVE",
"57 -77 OFFCURVE",
"35 -77 CURVE SMOOTH",
"14 -77 OFFCURVE",
"-6 -71 OFFCURVE",
"-6 -71 CURVE",
"-24 -80 LINE",
"-24 -145 LINE",
"-19 -151 LINE",
"-19 -151 OFFCURVE",
"-6 -162 OFFCURVE",
"43 -162 CURVE SMOOTH",
"126 -162 OFFCURVE",
"171 -125 OFFCURVE",
"171 -57 CURVE SMOOTH"
);
}
);
width = 244;
}
);
leftKerningGroup = j;
rightMetricsKey = n;
unicode = 006A;
},
{
glyphname = k;
lastChange = "2024-06-21 06:39:49 +0000";
layers = (
{
guideLines = (
{
angle = 90;
position = "{-26, 176}";
},
{
angle = 90;
position = "{175, 394}";
}
);
layerId = "9DF75A15-0AF9-4389-BE6D-DBD1DB18A6A2";
paths = (
{
closed = 1;
nodes = (
"175 204 OFFCURVE",
"189 219 OFFCURVE",
"201 232 CURVE",
"232 189 LINE",
"370 -1 LINE",
"490 -1 LINE",
"267 303 LINE",
"462 517 LINE",
"343 517 LINE",
"203 365 LINE SMOOTH",
"193 354 OFFCURVE",
"179 340 OFFCURVE",
"168 327 CURVE",
"168 712 LINE",
"61 712 LINE",
"60 -1 LINE",
"168 0 LINE",
"168 197 LINE"
);
}
);
width = 493;
}
);
leftMetricsKey = n;
rightKerningGroup = k;
rightMetricsKey = v;
unicode = 006B;
},
{
glyphname = l;
lastChange = "2024-06-21 06:39:49 +0000";
layers = (
{
layerId = "9DF75A15-0AF9-4389-BE6D-DBD1DB18A6A2";
paths = (
{
closed = 1;
nodes = (
"168 -1 LINE",
"168 711 LINE",
"60 711 LINE",
"60 -1 LINE"
);
}
);
width = 228;
}
);
leftMetricsKey = n;
rightMetricsKey = n;
unicode = 006C;
},
{
glyphname = m;
lastChange = "2024-06-21 06:39:49 +0000";
layers = (
{
anchors = (
{
name = bottom;
position = "{312, 8}";
}
);
layerId = "9DF75A15-0AF9-4389-BE6D-DBD1DB18A6A2";
paths = (
{
closed = 1;
nodes = (
"468 397 OFFCURVE",
"515 446 OFFCURVE",
"582 446 CURVE SMOOTH",
"634 446 OFFCURVE",
"660 412 OFFCURVE",
"660 336 CURVE SMOOTH",
"660 263 OFFCURVE",
"660 190 OFFCURVE",
"660 117 CURVE SMOOTH",
"660 78 OFFCURVE",
"660 39 OFFCURVE",
"660 -1 CURVE",
"767 -1 LINE",
"767 371 LINE SMOOTH",
"767 465 OFFCURVE",
"700 532 OFFCURVE",
"606 532 CURVE SMOOTH",
"534 532 OFFCURVE",
"474 499 OFFCURVE",
"441 464 CURVE",
"412 506 OFFCURVE",
"362 532 OFFCURVE",
"307 532 CURVE SMOOTH",
"241 532 OFFCURVE",
"196 504 OFFCURVE",
"168 477 CURVE",
"168 518 LINE",
"60 518 LINE",
"60 -1 LINE",
"168 -1 LINE",
"168 331 LINE SMOOTH",
"168 397 OFFCURVE",
"215 446 OFFCURVE",
"282 446 CURVE SMOOTH",
"335 446 OFFCURVE",
"360 412 OFFCURVE",
"360 336 CURVE SMOOTH",
"360 -1 LINE",
"468 -1 LINE",
"468 331 LINE SMOOTH"
);
}
);
width = 827;
}
);
leftMetricsKey = n;
rightMetricsKey = n;
unicode = 006D;
},
{
glyphname = n;
lastChange = "2024-06-21 06:39:49 +0000";
layers = (
{
hints = (
{
place = "{53, 79}";
type = Stem;
},
{
place = "{383, 79}";
type = Stem;
},
{
horizontal = 1;
place = "{447, 66}";
type = Stem;
}
);
layerId = "9DF75A15-0AF9-4389-BE6D-DBD1DB18A6A2";
paths = (
{
closed = 1;
nodes = (
"168 391 OFFCURVE",
"229 446 OFFCURVE",
"300 446 CURVE SMOOTH",
"362 446 OFFCURVE",
"390 412 OFFCURVE",
"390 336 CURVE SMOOTH",
"390 -1 LINE",
"498 -1 LINE",
"498 371 LINE SMOOTH",
"498 465 OFFCURVE",
"426 532 OFFCURVE",
"324 532 CURVE SMOOTH",
"257 532 OFFCURVE",
"201 502 OFFCURVE",
"168 474 CURVE",
"168 518 LINE",
"60 518 LINE",
"60 -1 LINE",
"168 -1 LINE",
"168 331 LINE SMOOTH"
);
}
);
width = 558;
}
);
unicode = 006E;
},
{
glyphname = o;
lastChange = "2024-06-21 06:39:49 +0000";
layers = (
{
hints = (
{
place = "{21, 81}";
type = Stem;
},
{
place = "{425, 81}";
type = Stem;
},
{
horizontal = 1;
place = "{514, -79}";
type = Stem;
},
{
horizontal = 1;
place = "{-14, 79}";
type = Stem;
}
);
layerId = "9DF75A15-0AF9-4389-BE6D-DBD1DB18A6A2";
paths = (
{
closed = 1;
nodes = (
"432 -15 OFFCURVE",
"537 99 OFFCURVE",
"537 258 CURVE SMOOTH",
"537 419 OFFCURVE",
"433 531 OFFCURVE",
"281 531 CURVE SMOOTH",
"131 531 OFFCURVE",
"24 417 OFFCURVE",
"24 258 CURVE SMOOTH",
"24 99 OFFCURVE",
"131 -15 OFFCURVE",
"281 -15 CURVE SMOOTH"
);
},
{
closed = 1;
nodes = (
"134 368 OFFCURVE",
"194 444 OFFCURVE",
"281 444 CURVE SMOOTH",
"370 444 OFFCURVE",
"429 369 OFFCURVE",
"429 258 CURVE SMOOTH",
"429 149 OFFCURVE",
"368 73 OFFCURVE",
"281 73 CURVE SMOOTH",
"195 73 OFFCURVE",
"134 150 OFFCURVE",
"134 258 CURVE SMOOTH"
);
}
);
width = 562;
}
);
unicode = 006F;
},
{
glyphname = oe;
lastChange = "2024-06-21 06:39:49 +0000";
layers = (
{
hints = (
{
place = "{21, 81}";
type = Stem;
},
{
place = "{425, 81}";
type = Stem;
},
{
horizontal = 1;
place = "{514, -79}";
type = Stem;
},
{
horizontal = 1;
place = "{-14, 79}";
type = Stem;
}
);
layerId = "9DF75A15-0AF9-4389-BE6D-DBD1DB18A6A2";
paths = (
{
closed = 1;
nodes = (
"808 -15 OFFCURVE",
"895 56 OFFCURVE",
"920 173 CURVE",
"812 172 LINE",
"795 105 OFFCURVE",
"750 68 OFFCURVE",
"690 68 CURVE SMOOTH",
"605 68 OFFCURVE",
"549 132 OFFCURVE",
"541 235 CURVE",
"564 234 OFFCURVE",
"598 234 OFFCURVE",
"630 234 CURVE SMOOTH",
"928 234 LINE",
"928 258 LINE SMOOTH",
"928 426 OFFCURVE",
"837 531 OFFCURVE",
"690 531 CURVE SMOOTH",
"597 531 OFFCURVE",
"526 487 OFFCURVE",
"487 408 CURVE",
"449 488 OFFCURVE",
"379 531 OFFCURVE",
"284 531 CURVE SMOOTH",
"134 531 OFFCURVE",
"27 417 OFFCURVE",
"27 258 CURVE SMOOTH",
"27 99 OFFCURVE",
"134 -15 OFFCURVE",
"284 -15 CURVE SMOOTH",
"378 -15 OFFCURVE",
"448 28 OFFCURVE",
"487 109 CURVE",
"526 29 OFFCURVE",
"596 -15 OFFCURVE",
"690 -15 CURVE SMOOTH"
);
},
{
closed = 1;
nodes = (
"137 368 OFFCURVE",
"197 444 OFFCURVE",
"284 444 CURVE SMOOTH",
"373 444 OFFCURVE",
"432 369 OFFCURVE",
"432 258 CURVE SMOOTH",
"432 149 OFFCURVE",
"371 73 OFFCURVE",
"284 73 CURVE SMOOTH",
"198 73 OFFCURVE",
"137 150 OFFCURVE",
"137 258 CURVE SMOOTH"
);
},
{
closed = 1;
nodes = (
"563 406 OFFCURVE",
"609 449 OFFCURVE",
"691 449 CURVE SMOOTH",
"757 449 OFFCURVE",
"805 398 OFFCURVE",
"817 314 CURVE",
"630 314 LINE SMOOTH",
"600 314 OFFCURVE",
"568 314 OFFCURVE",
"546 313 CURVE"
);
}
);
width = 955;
}
);
leftMetricsKey = o;
rightMetricsKey = e;
unicode = 0153;
},
{
glyphname = p;
lastChange = "2024-06-21 06:39:49 +0000";
layers = (
{
layerId = "9DF75A15-0AF9-4389-BE6D-DBD1DB18A6A2";
paths = (
{
closed = 1;
nodes = (
"168 -162 LINE",
"168 45 LINE",
"201 12 OFFCURVE",
"257 -16 OFFCURVE",
"325 -16 CURVE SMOOTH",
"451 -16 OFFCURVE",
"541 98 OFFCURVE",
"541 257 CURVE SMOOTH",
"541 416 OFFCURVE",
"451 531 OFFCURVE",
"325 531 CURVE SMOOTH",
"257 531 OFFCURVE",
"201 503 OFFCURVE",
"168 470 CURVE",
"168 518 LINE",
"60 518 LINE",
"60 -162 LINE"
);
},
{
closed = 1;
nodes = (
"168 371 OFFCURVE",
"221 445 OFFCURVE",
"301 445 CURVE SMOOTH",
"378 445 OFFCURVE",
"433 368 OFFCURVE",
"433 258 CURVE SMOOTH",
"433 147 OFFCURVE",
"377 69 OFFCURVE",
"301 69 CURVE SMOOTH",
"221 69 OFFCURVE",
"168 144 OFFCURVE",
"168 258 CURVE SMOOTH"
);
}
);
width = 568;
}
);
leftMetricsKey = n;
rightMetricsKey = o;
unicode = 0070;
},
{
glyphname = thorn;
lastChange = "2024-06-21 06:39:49 +0000";
layers = (
{
layerId = "9DF75A15-0AF9-4389-BE6D-DBD1DB18A6A2";
paths = (
{
closed = 1;
nodes = (
"168 -162 LINE",
"168 45 LINE",
"201 12 OFFCURVE",
"257 -16 OFFCURVE",
"325 -16 CURVE SMOOTH",
"451 -16 OFFCURVE",
"541 98 OFFCURVE",
"541 257 CURVE SMOOTH",
"541 416 OFFCURVE",
"451 531 OFFCURVE",
"325 531 CURVE SMOOTH",
"257 531 OFFCURVE",
"201 503 OFFCURVE",
"168 470 CURVE",
"168 711 LINE",
"60 711 LINE",
"60 -162 LINE"
);
},
{
closed = 1;
nodes = (
"168 371 OFFCURVE",
"221 445 OFFCURVE",
"301 445 CURVE SMOOTH",
"378 445 OFFCURVE",
"433 368 OFFCURVE",
"433 258 CURVE SMOOTH",
"433 147 OFFCURVE",
"377 69 OFFCURVE",
"301 69 CURVE SMOOTH",
"221 69 OFFCURVE",
"168 144 OFFCURVE",
"168 258 CURVE SMOOTH"
);
}
);
width = 568;
}
);
leftMetricsKey = p;
rightMetricsKey = p;
unicode = 00FE;
},
{
glyphname = q;
lastChange = "2024-06-21 06:39:49 +0000";
layers = (
{
layerId = "9DF75A15-0AF9-4389-BE6D-DBD1DB18A6A2";
paths = (
{
closed = 1;
nodes = (
"508 -162 LINE",
"508 518 LINE",
"401 518 LINE",
"401 470 LINE",
"367 503 OFFCURVE",
"311 531 OFFCURVE",
"243 531 CURVE SMOOTH",
"118 531 OFFCURVE",
"27 416 OFFCURVE",
"27 257 CURVE SMOOTH",
"27 98 OFFCURVE",
"118 -16 OFFCURVE",
"243 -16 CURVE SMOOTH",
"311 -16 OFFCURVE",
"367 12 OFFCURVE",
"401 45 CURVE",
"401 -162 LINE"
);
},
{
closed = 1;
nodes = (
"136 368 OFFCURVE",
"191 445 OFFCURVE",
"268 445 CURVE SMOOTH",
"347 445 OFFCURVE",
"401 371 OFFCURVE",
"401 258 CURVE SMOOTH",
"401 144 OFFCURVE",
"348 69 OFFCURVE",
"268 69 CURVE SMOOTH",
"191 69 OFFCURVE",
"136 147 OFFCURVE",
"136 258 CURVE SMOOTH"
);
}
);
width = 568;
}
);
leftMetricsKey = o;
rightMetricsKey = n;
unicode = 0071;
},
{
glyphname = r;
lastChange = "2024-06-21 06:39:49 +0000";
layers = (
{
layerId = "9DF75A15-0AF9-4389-BE6D-DBD1DB18A6A2";
paths = (
{
closed = 1;
nodes = (
"265 536 OFFCURVE",
"203 504 OFFCURVE",
"168 474 CURVE",
"168 518 LINE",
"60 518 LINE",
"60 -1 LINE",
"168 -1 LINE",
"168 331 LINE SMOOTH",
"168 398 OFFCURVE",
"243 452 OFFCURVE",
"339 446 CURVE",
"339 531 LINE"
);
}
);
width = 345;
}
);
leftMetricsKey = n;
rightKerningGroup = r;
unicode = 0072;
},
{
glyphname = s;
lastChange = "2024-06-21 06:39:49 +0000";
layers = (
{
layerId = "9DF75A15-0AF9-4389-BE6D-DBD1DB18A6A2";
paths = (
{
closed = 1;
nodes = (
"387 -16 OFFCURVE",
"480 50 OFFCURVE",
"480 146 CURVE SMOOTH",
"480 260 OFFCURVE",
"391 284 OFFCURVE",
"284 308 CURVE SMOOTH",
"195 331 OFFCURVE",
"157 341 OFFCURVE",
"157 386 CURVE SMOOTH",
"157 422 OFFCURVE",
"194 445 OFFCURVE",
"255 445 CURVE SMOOTH",
"322 445 OFFCURVE",
"359 414 OFFCURVE",
"361 356 CURVE",
"472 356 LINE",
"466 458 OFFCURVE",
"377 531 OFFCURVE",
"258 531 CURVE SMOOTH",
"135 531 OFFCURVE",
"49 472 OFFCURVE",
"49 386 CURVE SMOOTH",
"49 275 OFFCURVE",
"148 245 OFFCURVE",
"251 223 CURVE SMOOTH",
"344 203 OFFCURVE",
"372 184 OFFCURVE",
"372 145 CURVE SMOOTH",
"372 97 OFFCURVE",
"330 70 OFFCURVE",
"256 70 CURVE SMOOTH",
"188 70 OFFCURVE",
"151 101 OFFCURVE",
"149 159 CURVE",
"38 159 LINE",
"44 57 OFFCURVE",
"134 -16 OFFCURVE",
"253 -16 CURVE SMOOTH"
);
}
);
width = 514;
}
);
unicode = 0073;
},
{
glyphname = germandbls;
lastChange = "2024-06-21 07:17:50 +0000";
layers = (
{
layerId = "9DF75A15-0AF9-4389-BE6D-DBD1DB18A6A2";
paths = (
{
closed = 1;
nodes = (
"170 -1 LINE",
"170 520 LINE SMOOTH",
"170 584 OFFCURVE",
"216 635 OFFCURVE",
"272 635 CURVE SMOOTH",
"338 635 OFFCURVE",
"382 592 OFFCURVE",
"382 529 CURVE SMOOTH",
"382 463 OFFCURVE",
"333 420 OFFCURVE",
"258 420 CURVE SMOOTH",
"238 420 LINE",
"238 334 LINE",
"275 334 LINE SMOOTH",
"358 334 OFFCURVE",
"417 279 OFFCURVE",
"417 203 CURVE SMOOTH",
"417 127 OFFCURVE",
"372 77 OFFCURVE",
"303 77 CURVE SMOOTH",
"262 77 OFFCURVE",
"231 85 OFFCURVE",
"231 85 CURVE",
"231 -7 LINE",
"231 -7 OFFCURVE",
"262 -16 OFFCURVE",
"316 -16 CURVE SMOOTH",
"443 -16 OFFCURVE",
"530 73 OFFCURVE",
"530 203 CURVE SMOOTH",
"530 286 OFFCURVE",
"484 350 OFFCURVE",
"404 380 CURVE",
"463 410 OFFCURVE",
"495 462 OFFCURVE",
"495 529 CURVE SMOOTH",
"495 641 OFFCURVE",
"399 726 OFFCURVE",
"272 726 CURVE SMOOTH",
"148 726 OFFCURVE",
"58 640 OFFCURVE",
"58 525 CURVE SMOOTH",
"59 -1 LINE"
);
}
);
width = 557;
}
);
leftMetricsKey = H;
rightMetricsKey = o;
unicode = 00DF;
},
{
glyphname = t;
lastChange = "2024-06-21 06:42:26 +0000";
layers = (
{
layerId = "9DF75A15-0AF9-4389-BE6D-DBD1DB18A6A2";
paths = (
{
closed = 1;
nodes = (
"310 -4 OFFCURVE",
"330 14 OFFCURVE",
"330 14 CURVE",
"330 94 LINE",
"330 94 OFFCURVE",
"287 81 OFFCURVE",
"242 81 CURVE SMOOTH",
"222 81 OFFCURVE",
"213 93 OFFCURVE",
"213 135 CURVE SMOOTH",
"213 436 LINE",
"333 436 LINE",
"333 518 LINE",
"240 518 LINE SMOOTH",
"232 518 OFFCURVE",
"221 518 OFFCURVE",
"213 517 CURVE",
"213 653 LINE",
"106 653 LINE",
"106 621 LINE",
"107 517 LINE",
"97 518 OFFCURVE",
"85 518 OFFCURVE",
"78 518 CURVE SMOOTH",
"16 518 LINE",
"16 436 LINE",
"106 436 LINE",
"106 96 LINE",
"109 30 OFFCURVE",
"153 -4 OFFCURVE",
"234 -4 CURVE SMOOTH"
);
}
);
width = 342;
}
);
leftMetricsKey = f;
rightMetricsKey = f;
unicode = 0074;
},
{
glyphname = u;
lastChange = "2024-06-21 06:39:49 +0000";
layers = (
{
layerId = "9DF75A15-0AF9-4389-BE6D-DBD1DB18A6A2";
paths = (
{
closed = 1;
nodes = (
"308 -15 OFFCURVE",
"353 11 OFFCURVE",
"381 38 CURVE",
"381 -1 LINE",
"489 -1 LINE",
"489 518 LINE",
"381 518 LINE",
"381 178 LINE SMOOTH",
"381 125 OFFCURVE",
"326 71 OFFCURVE",
"271 71 CURVE SMOOTH",
"197 71 OFFCURVE",
"168 104 OFFCURVE",
"168 191 CURVE SMOOTH",
"168 518 LINE",
"60 518 LINE",
"60 167 LINE SMOOTH",
"60 55 OFFCURVE",
"131 -15 OFFCURVE",
"246 -15 CURVE SMOOTH"
);
}
);
width = 549;
}
);
leftMetricsKey = n;
rightMetricsKey = n;
unicode = 0075;
},
{
glyphname = v;
lastChange = "2024-06-21 06:41:19 +0000";
layers = (
{
guideLines = (
{
position = "{107, 219}";
}
);
hints = (
{
horizontal = 1;
place = "{2, 79}";
type = Stem;
}
);
layerId = "9DF75A15-0AF9-4389-BE6D-DBD1DB18A6A2";
paths = (
{
closed = 1;
nodes = (
"294 1 LINE",
"476 518 LINE",
"363 518 LINE SMOOTH",
"363 518 OFFCURVE",
"294 314 OFFCURVE",
"264 213 CURVE SMOOTH",
"240.428 134.002 LINE",
"216 215 LINE SMOOTH",
"186 314 OFFCURVE",
"119 518 OFFCURVE",
"119 518 CURVE SMOOTH",
"6 518 LINE",
"187 1 LINE"
);
}
);
width = 482;
}
);
leftKerningGroup = v;
rightKerningGroup = v;
unicode = 0076;
},
{
glyphname = w;
lastChange = "2024-06-21 06:57:02 +0000";
layers = (
{
hints = (
{
horizontal = 1;
place = "{0, 79}";
type = Stem;
},
{
horizontal = 1;
place = "{501, -79}";
type = Stem;
}
);
layerId = "9DF75A15-0AF9-4389-BE6D-DBD1DB18A6A2";
paths = (
{
closed = 1;
nodes = (
"285 -1 LINE",
"396.944 380.143 LINE",
"508 -1 LINE",
"615 -1 LINE",
"787 518 LINE",
"673 518 LINE SMOOTH",
"673 518 OFFCURVE",
"609 311 OFFCURVE",
"582 212 CURVE SMOOTH",
"561.63 136.267 LINE",
"554.476 160.703 OFFCURVE",
"546.255 189.459 OFFCURVE",
"541 210 CURVE SMOOTH",
"514 312 OFFCURVE",
"449 518 OFFCURVE",
"449 518 CURVE SMOOTH",
"343 518 LINE SMOOTH",
"343 518 OFFCURVE",
"277 311 OFFCURVE",
"251 212 CURVE SMOOTH",
"231.219 138.714 LINE",
"210 214 LINE SMOOTH",
"182 313 OFFCURVE",
"119 518 OFFCURVE",
"119 518 CURVE SMOOTH",
"7 518 LINE",
"177 -1 LINE"
);
}
);
width = 793;
}
);
leftKerningGroup = v;
leftMetricsKey = v;
rightMetricsKey = v;
unicode = 0077;
},
{
glyphname = x;
lastChange = "2024-06-21 06:39:49 +0000";
layers = (
{
layerId = "9DF75A15-0AF9-4389-BE6D-DBD1DB18A6A2";
paths = (
{
closed = 1;
nodes = (
"121 -1 LINE",
"212 129 LINE",
"219 139 OFFCURVE",
"223 145 OFFCURVE",
"234 160 CURVE",
"237 165 OFFCURVE",
"240 170 OFFCURVE",
"243 175 CURVE",
"275 128 LINE",
"366 -1 LINE",
"484 -1 LINE",
"341 205 LINE",
"335 212 OFFCURVE",
"326 225 OFFCURVE",
"319 235 CURVE SMOOTH",
"310 246 OFFCURVE",
"306 252 OFFCURVE",
"301 259 CURVE",
"306 266 OFFCURVE",
"310 272 OFFCURVE",
"319 283 CURVE SMOOTH",
"326 293 OFFCURVE",
"335 306 OFFCURVE",
"341 313 CURVE",
"484 518 LINE",
"366 518 LINE",
"274 386 LINE",
"267 376 OFFCURVE",
"263 370 OFFCURVE",
"253 355 CURVE",
"250 351 OFFCURVE",
"247 346 OFFCURVE",
"243 341 CURVE",
"240 346 OFFCURVE",
"237 351 OFFCURVE",
"234 355 CURVE",
"224 370 OFFCURVE",
"220 376 OFFCURVE",
"213 386 CURVE",
"121 518 LINE",
"3 518 LINE",
"150 308 LINE SMOOTH",
"155 301 OFFCURVE",
"163 290 OFFCURVE",
"170 281 CURVE SMOOTH",
"178 271 OFFCURVE",
"182 266 OFFCURVE",
"186 259 CURVE",
"151 211 LINE",
"3 -1 LINE"
);
}
);
width = 487;
}
);
leftMetricsKey = v;
rightMetricsKey = v;
unicode = 0078;
},
{
glyphname = y;
lastChange = "2024-06-21 06:45:15 +0000";
layers = (
{
layerId = "9DF75A15-0AF9-4389-BE6D-DBD1DB18A6A2";
paths = (
{
closed = 1;
nodes = (
"163 -46 LINE SMOOTH",
"150 -80 OFFCURVE",
"138 -91 OFFCURVE",
"113 -91 CURVE SMOOTH",
"95 -91 OFFCURVE",
"53 -84 OFFCURVE",
"53 -84 CURVE",
"53 -166 LINE",
"53 -166 OFFCURVE",
"84 -177 OFFCURVE",
"130 -177 CURVE SMOOTH",
"195 -177 OFFCURVE",
"243 -137 OFFCURVE",
"275 -60 CURVE",
"475 518 LINE",
"363 518 LINE SMOOTH",
"363 518 OFFCURVE",
"294 314 OFFCURVE",
"264 213 CURVE SMOOTH",
"240.428 134.002 LINE",
"216 215 LINE SMOOTH",
"186 314 OFFCURVE",
"119 518 OFFCURVE",
"119 518 CURVE SMOOTH",
"6 518 LINE",
"184 10 LINE"
);
}
);
width = 482;
}
);
leftKerningGroup = v;
leftMetricsKey = v;
rightMetricsKey = v;
unicode = 0079;
},
{
glyphname = z;
lastChange = "2024-06-21 06:39:49 +0000";
layers = (
{
layerId = "9DF75A15-0AF9-4389-BE6D-DBD1DB18A6A2";
paths = (
{
closed = 1;
nodes = (
"433 81 LINE",
"134 81 LINE",
"192 152 LINE",
"428 445 LINE",
"428 518 LINE",
"34 518 LINE",
"34 436 LINE",
"304 436 LINE",
"290 419 OFFCURVE",
"268 393 OFFCURVE",
"257 380 CURVE SMOOTH",
"10 72 LINE",
"10 0 LINE",
"433 -1 LINE"
);
}
);
width = 442;
}
);
leftMetricsKey = v;
rightMetricsKey = v;
unicode = 007A;
},
{
glyphname = a.001;
lastChange = "2024-06-21 06:39:49 +0000";
layers = (
{
anchors = (
{
name = top;
position = "{265, 502}";
}
);
layerId = "9DF75A15-0AF9-4389-BE6D-DBD1DB18A6A2";
paths = (
{
closed = 1;
nodes = (
"381 14 OFFCURVE",
"419 -4 OFFCURVE",
"469 -4 CURVE SMOOTH",
"534 -4 OFFCURVE",
"493 7 OFFCURVE",
"516 -11 CURVE",
"516 79 LINE",
"471 77 OFFCURVE",
"459 83 OFFCURVE",
"459 125 CURVE SMOOTH",
"459 209 LINE SMOOTH",
"459 227 OFFCURVE",
"459 248 OFFCURVE",
"459 269 CURVE SMOOTH",
"459 311 OFFCURVE",
"459 355 OFFCURVE",
"459 385 CURVE SMOOTH",
"458 476 OFFCURVE",
"377 532 OFFCURVE",
"249 532 CURVE SMOOTH",
"137 532 OFFCURVE",
"48 456 OFFCURVE",
"42 356 CURVE",
"153 356 LINE",
"155 415 OFFCURVE",
"191 445 OFFCURVE",
"260 445 CURVE SMOOTH",
"318 445 OFFCURVE",
"350 425 OFFCURVE",
"350 388 CURVE SMOOTH",
"350 342 OFFCURVE",
"313 332 OFFCURVE",
"223 309 CURVE SMOOTH",
"116 285 OFFCURVE",
"27 261 OFFCURVE",
"27 148 CURVE SMOOTH",
"27 62 OFFCURVE",
"110 -14 OFFCURVE",
"202 -14 CURVE SMOOTH",
"297 -14 OFFCURVE",
"343 21 OFFCURVE",
"365 47 CURVE"
);
},
{
closed = 1;
nodes = (
"136 190 OFFCURVE",
"162 213 OFFCURVE",
"240 231 CURVE SMOOTH",
"287 242 OFFCURVE",
"327 255 OFFCURVE",
"356 270 CURVE",
"357 227 LINE",
"357 194 LINE",
"357 191 LINE SMOOTH",
"356 128 OFFCURVE",
"293 70 OFFCURVE",
"227 70 CURVE SMOOTH",
"175 70 OFFCURVE",
"136 101 OFFCURVE",
"136 144 CURVE SMOOTH"
);
}
);
width = 526;
}
);
leftMetricsKey = o;
rightKerningGroup = a;
},
{
glyphname = g.001;
lastChange = "2024-06-21 06:39:49 +0000";
layers = (
{
layerId = "9DF75A15-0AF9-4389-BE6D-DBD1DB18A6A2";
paths = (
{
closed = 1;
nodes = (
"424 -178 OFFCURVE",
"508 -91 OFFCURVE",
"508 66 CURVE SMOOTH",
"508 518 LINE",
"401 518 LINE",
"401 473 LINE",
"367 504 OFFCURVE",
"311 531 OFFCURVE",
"243 531 CURVE SMOOTH",
"119 531 OFFCURVE",
"27 423 OFFCURVE",
"27 274 CURVE SMOOTH",
"27 125 OFFCURVE",
"118 16 OFFCURVE",
"243 16 CURVE SMOOTH",
"311 16 OFFCURVE",
"367 43 OFFCURVE",
"401 74 CURVE",
"401 -46 OFFCURVE",
"362 -94 OFFCURVE",
"270 -94 CURVE SMOOTH",
"169 -94 OFFCURVE",
"163 -48 OFFCURVE",
"153 -15 CURVE",
"47 -13 LINE",
"54 -113 OFFCURVE",
"142 -178 OFFCURVE",
"270 -178 CURVE SMOOTH"
);
},
{
closed = 1;
nodes = (
"136 377 OFFCURVE",
"191 450 OFFCURVE",
"268 450 CURVE SMOOTH",
"348 450 OFFCURVE",
"401 380 OFFCURVE",
"401 275 CURVE SMOOTH",
"401 167 OFFCURVE",
"348 97 OFFCURVE",
"268 97 CURVE SMOOTH",
"191 97 OFFCURVE",
"136 170 OFFCURVE",
"136 275 CURVE SMOOTH"
);
}
);
width = 568;
}
);
leftMetricsKey = o;
rightMetricsKey = n;
},
{
glyphname = zero;
lastChange = "2024-06-21 06:39:49 +0000";
layers = (
{
layerId = "9DF75A15-0AF9-4389-BE6D-DBD1DB18A6A2";
paths = (
{
closed = 1;
nodes = (
"470 -16 OFFCURVE",
"563 114 OFFCURVE",
"563 354 CURVE SMOOTH",
"563 595 OFFCURVE",
"470 725 OFFCURVE",
"295 725 CURVE SMOOTH",
"121 725 OFFCURVE",
"26 593 OFFCURVE",
"26 354 CURVE SMOOTH",
"26 116 OFFCURVE",
"121 -16 OFFCURVE",
"295 -16 CURVE SMOOTH"
);
},
{
closed = 1;
nodes = (
"140 540 OFFCURVE",
"193 634 OFFCURVE",
"296 634 CURVE SMOOTH",
"397 634 OFFCURVE",
"449 541 OFFCURVE",
"449 353 CURVE SMOOTH",
"449 167 OFFCURVE",
"397 75 OFFCURVE",
"296 75 CURVE SMOOTH",
"193 75 OFFCURVE",
"140 168 OFFCURVE",
"140 353 CURVE SMOOTH"
);
}
);
width = 589;
}
);
leftMetricsKey = O;
rightMetricsKey = O;
unicode = 0030;
},
{
glyphname = one;
lastChange = "2024-06-21 06:39:49 +0000";
layers = (
{
layerId = "9DF75A15-0AF9-4389-BE6D-DBD1DB18A6A2";
paths = (
{
closed = 1;
nodes = (
"275 -1 LINE",
"275 710 LINE",
"164 710 LINE",
"171 621 OFFCURVE",
"68 580 OFFCURVE",
"21 589 CURVE",
"21 514 LINE",
"164 514 LINE",
"164 -1 LINE"
);
}
);
width = 381;
}
);
unicode = 0031;
},
{
glyphname = two;
lastChange = "2024-06-21 06:39:49 +0000";
layers = (
{
layerId = "9DF75A15-0AF9-4389-BE6D-DBD1DB18A6A2";
paths = (
{
closed = 1;
nodes = (
"511 -1 LINE",
"511 85 LINE",
"169 85 LINE",
"189 158 OFFCURVE",
"236 196 OFFCURVE",
"301 249 CURVE SMOOTH",
"343 283 OFFCURVE",
"395 325 OFFCURVE",
"443 380 CURVE SMOOTH",
"490 432 OFFCURVE",
"509 480 OFFCURVE",
"509 539 CURVE SMOOTH",
"509 647 OFFCURVE",
"408 727 OFFCURVE",
"273 727 CURVE SMOOTH",
"135 727 OFFCURVE",
"31 642 OFFCURVE",
"37 531 CURVE",
"149 531 LINE",
"143 592 OFFCURVE",
"196 636 OFFCURVE",
"273 636 CURVE SMOOTH",
"348 636 OFFCURVE",
"396 595 OFFCURVE",
"396 532 CURVE SMOOTH",
"396 494 OFFCURVE",
"382 457 OFFCURVE",
"359 431 CURVE SMOOTH",
"326 391 OFFCURVE",
"290 363 OFFCURVE",
"251 333 CURVE SMOOTH",
"160 263 OFFCURVE",
"61 186 OFFCURVE",
"24 -1 CURVE"
);
}
);
width = 550;
}
);
leftMetricsKey = zero;
unicode = 0032;
},
{
glyphname = three;
lastChange = "2024-06-21 06:39:49 +0000";
layers = (
{
guideLines = (
{
position = "{-74, 531}";
},
{
position = "{-74, 199}";
}
);
layerId = "9DF75A15-0AF9-4389-BE6D-DBD1DB18A6A2";
paths = (
{
closed = 1;
nodes = (
"419 -16 OFFCURVE",
"526 75 OFFCURVE",
"526 197 CURVE SMOOTH",
"526 277 OFFCURVE",
"481 347 OFFCURVE",
"406 385 CURVE",
"473 418 OFFCURVE",
"512 474 OFFCURVE",
"512 539 CURVE SMOOTH",
"512 647 OFFCURVE",
"411 727 OFFCURVE",
"275 727 CURVE SMOOTH",
"138 727 OFFCURVE",
"34 642 OFFCURVE",
"40 531 CURVE",
"152 531 LINE",
"146 593 OFFCURVE",
"200 639 OFFCURVE",
"275 639 CURVE SMOOTH",
"349 639 OFFCURVE",
"399 597 OFFCURVE",
"399 536 CURVE SMOOTH",
"399 473 OFFCURVE",
"353 430 OFFCURVE",
"285 430 CURVE SMOOTH",
"213 430 LINE",
"211 343 LINE",
"285 343 LINE SMOOTH",
"364 343 OFFCURVE",
"412 291 OFFCURVE",
"412 207 CURVE SMOOTH",
"412 127 OFFCURVE",
"358 75 OFFCURVE",
"275 75 CURVE SMOOTH",
"193 75 OFFCURVE",
"133 131 OFFCURVE",
"138 206 CURVE",
"26 206 LINE",
"21 79 OFFCURVE",
"129 -16 OFFCURVE",
"275 -16 CURVE SMOOTH"
);
}
);
width = 552;
}
);
leftMetricsKey = zero;
rightMetricsKey = zero;
unicode = 0033;
},
{
glyphname = four;
lastChange = "2024-06-21 06:39:49 +0000";
layers = (
{
layerId = "9DF75A15-0AF9-4389-BE6D-DBD1DB18A6A2";
paths = (
{
closed = 1;
nodes = (
"367 180 LINE",
"367 -1 LINE",
"478 -1 LINE",
"478 180 LINE",
"555 180 LINE",
"555 267 LINE",
"478 267 LINE",
"478 710 LINE",
"372 710 LINE",
"24 259 LINE",
"24 180 LINE"
);
},
{
closed = 1;
nodes = (
"367 544 LINE",
"367 267 LINE",
"155 267 LINE"
);
}
);
width = 594;
}
);
rightMetricsKey = two;
unicode = 0034;
},
{
glyphname = five;
lastChange = "2024-06-21 06:39:49 +0000";
layers = (
{
guideLines = (
{
position = "{-44, 329}";
},
{
position = "{-10, 172}";
}
);
layerId = "9DF75A15-0AF9-4389-BE6D-DBD1DB18A6A2";
paths = (
{
closed = 1;
nodes = (
"411 -11 OFFCURVE",
"517 93 OFFCURVE",
"517 233 CURVE SMOOTH",
"517 372 OFFCURVE",
"411 475 OFFCURVE",
"269 475 CURVE SMOOTH",
"224 475 OFFCURVE",
"180 465 OFFCURVE",
"144 445 CURVE",
"167 624 LINE",
"497 624 LINE",
"497 710 LINE",
"75 710 LINE",
"25 323 LINE",
"132 316 LINE",
"162 362 OFFCURVE",
"202 385 OFFCURVE",
"251 385 CURVE SMOOTH",
"347 385 OFFCURVE",
"405 327 OFFCURVE",
"405 233 CURVE SMOOTH",
"405 142 OFFCURVE",
"350 80 OFFCURVE",
"269 80 CURVE SMOOTH",
"206 80 OFFCURVE",
"157 116 OFFCURVE",
"136 181 CURVE",
"25 177 LINE",
"50 64 OFFCURVE",
"147 -11 OFFCURVE",
"269 -11 CURVE SMOOTH"
);
}
);
width = 543;
}
);
leftMetricsKey = zero;
rightMetricsKey = zero;
unicode = 0035;
},
{
glyphname = six;
lastChange = "2024-06-21 06:39:49 +0000";
layers = (
{
layerId = "9DF75A15-0AF9-4389-BE6D-DBD1DB18A6A2";
paths = (
{
closed = 1;
nodes = (
"437 -16 OFFCURVE",
"543 88 OFFCURVE",
"543 227 CURVE SMOOTH",
"543 367 OFFCURVE",
"437 470 OFFCURVE",
"294 470 CURVE SMOOTH",
"232 470 OFFCURVE",
"178 450 OFFCURVE",
"135 413 CURVE",
"146 564 OFFCURVE",
"197 634 OFFCURVE",
"294 634 CURVE SMOOTH",
"378 634 OFFCURVE",
"429 587 OFFCURVE",
"434 503 CURVE",
"546 505 LINE",
"535 638 OFFCURVE",
"436 725 OFFCURVE",
"294 725 CURVE SMOOTH",
"119 725 OFFCURVE",
"26 595 OFFCURVE",
"26 355 CURVE SMOOTH",
"26 272 OFFCURVE",
"37 204 OFFCURVE",
"58 146 CURVE",
"69 114 OFFCURVE",
"87 84 OFFCURVE",
"114 56 CURVE SMOOTH",
"156 10 OFFCURVE",
"220 -16 OFFCURVE",
"294 -16 CURVE SMOOTH"
);
},
{
closed = 1;
nodes = (
"152 319 OFFCURVE",
"208 380 OFFCURVE",
"293 380 CURVE SMOOTH",
"378 380 OFFCURVE",
"430 322 OFFCURVE",
"430 227 CURVE SMOOTH",
"430 133 OFFCURVE",
"378 75 OFFCURVE",
"293 75 CURVE SMOOTH",
"208 75 OFFCURVE",
"152 135 OFFCURVE",
"152 227 CURVE SMOOTH"
);
}
);
width = 571;
}
);
leftMetricsKey = zero;
rightMetricsKey = zero;
unicode = 0036;
},
{
glyphname = seven;
lastChange = "2024-06-21 06:39:49 +0000";
layers = (
{
layerId = "9DF75A15-0AF9-4389-BE6D-DBD1DB18A6A2";
paths = (
{
closed = 1;
nodes = (
"213 -1 LINE",
"218 301 OFFCURVE",
"385 486 OFFCURVE",
"574 632 CURVE",
"574 710 LINE",
"21 710 LINE",
"21 624 LINE",
"429 624 LINE",
"230 466 OFFCURVE",
"98 217 OFFCURVE",
"102 -1 CURVE"
);
}
);
width = 560;
}
);
leftMetricsKey = one;
unicode = 0037;
},
{
glyphname = eight;
lastChange = "2024-06-21 06:39:49 +0000";
layers = (
{
layerId = "9DF75A15-0AF9-4389-BE6D-DBD1DB18A6A2";
paths = (
{
closed = 1;
nodes = (
"435 -16 OFFCURVE",
"545 78 OFFCURVE",
"545 206 CURVE SMOOTH",
"545 290 OFFCURVE",
"497 362 OFFCURVE",
"416 400 CURVE",
"477 433 OFFCURVE",
"511 485 OFFCURVE",
"511 546 CURVE SMOOTH",
"511 649 OFFCURVE",
"415 726 OFFCURVE",
"285 726 CURVE SMOOTH",
"156 726 OFFCURVE",
"60 649 OFFCURVE",
"60 546 CURVE SMOOTH",
"60 486 OFFCURVE",
"95 433 OFFCURVE",
"155 400 CURVE",
"74 362 OFFCURVE",
"26 291 OFFCURVE",
"26 206 CURVE SMOOTH",
"26 79 OFFCURVE",
"137 -16 OFFCURVE",
"285 -16 CURVE SMOOTH"
);
},
{
closed = 1;
nodes = (
"140 302 OFFCURVE",
"196 358 OFFCURVE",
"285 358 CURVE SMOOTH",
"375 358 OFFCURVE",
"432 302 OFFCURVE",
"432 215 CURVE SMOOTH",
"432 130 OFFCURVE",
"374 75 OFFCURVE",
"285 75 CURVE SMOOTH",
"197 75 OFFCURVE",
"140 131 OFFCURVE",
"140 215 CURVE SMOOTH"
);
},
{
closed = 1;
nodes = (
"174 598 OFFCURVE",
"216 635 OFFCURVE",
"285 635 CURVE SMOOTH",
"355 635 OFFCURVE",
"398 599 OFFCURVE",
"398 539 CURVE SMOOTH",
"398 481 OFFCURVE",
"355 444 OFFCURVE",
"285 444 CURVE SMOOTH",
"217 444 OFFCURVE",
"174 481 OFFCURVE",
"174 539 CURVE SMOOTH"
);
}
);
width = 571;
}
);
leftMetricsKey = zero;
rightMetricsKey = zero;
unicode = 0038;
},
{
glyphname = nine;
lastChange = "2024-06-21 06:39:49 +0000";
layers = (
{
guideLines = (
{
position = "{611, 198}";
},
{
position = "{611, 248}";
}
);
layerId = "9DF75A15-0AF9-4389-BE6D-DBD1DB18A6A2";
paths = (
{
closed = 1;
nodes = (
"134 747 OFFCURVE",
"28 644 OFFCURVE",
"28 504 CURVE SMOOTH",
"28 364 OFFCURVE",
"134 261 OFFCURVE",
"277 261 CURVE SMOOTH",
"339 261 OFFCURVE",
"394 281 OFFCURVE",
"437 319 CURVE",
"426 167 OFFCURVE",
"374 97 OFFCURVE",
"277 97 CURVE SMOOTH",
"194 97 OFFCURVE",
"143 145 OFFCURVE",
"137 228 CURVE",
"25 227 LINE",
"36 93 OFFCURVE",
"135 7 OFFCURVE",
"277 7 CURVE SMOOTH",
"452 7 OFFCURVE",
"545 136 OFFCURVE",
"545 376 CURVE SMOOTH",
"545 460 OFFCURVE",
"535 527 OFFCURVE",
"513 585 CURVE",
"503 617 OFFCURVE",
"484 648 OFFCURVE",
"458 675 CURVE SMOOTH",
"415 722 OFFCURVE",
"352 747 OFFCURVE",
"277 747 CURVE SMOOTH"
);
},
{
closed = 1;
nodes = (
"142 598 OFFCURVE",
"194 657 OFFCURVE",
"278 657 CURVE SMOOTH",
"363 657 OFFCURVE",
"419 596 OFFCURVE",
"419 504 CURVE SMOOTH",
"419 412 OFFCURVE",
"364 351 OFFCURVE",
"278 351 CURVE SMOOTH",
"193 351 OFFCURVE",
"142 410 OFFCURVE",
"142 504 CURVE SMOOTH"
);
}
);
width = 571;
}
);
leftMetricsKey = zero;
rightMetricsKey = zero;
unicode = 0039;
},
{
glyphname = fraction;
lastChange = "2024-06-21 06:39:49 +0000";
layers = (
{
layerId = "9DF75A15-0AF9-4389-BE6D-DBD1DB18A6A2";
paths = (
{
closed = 1;
nodes = (
"53 -16 LINE",
"167 -16 LINE",
"597 726 LINE",
"483 726 LINE"
);
}
);
width = 650;
}
);
leftMetricsKey = H;
rightMetricsKey = H;
unicode = 2044;
},
{
glyphname = comma;
lastChange = "2024-06-21 06:49:47 +0000";
layers = (
{
components = (
{
name = dotaccentcomb;
transform = "{1.1, 0, 0, 1.1, 19, -663}";
}
);
layerId = "9DF75A15-0AF9-4389-BE6D-DBD1DB18A6A2";
paths = (
{
closed = 1;
nodes = (
"92 -128 OFFCURVE",
"145 -68 OFFCURVE",
"145 54 CURVE SMOOTH",
"145 54 OFFCURVE",
"72 -14 OFFCURVE",
"60 -14 CURVE",
"53 -34 OFFCURVE",
"34 -50 OFFCURVE",
"10 -45 CURVE",
"10 -120 LINE"
);
}
);
width = 146;
}
);
leftMetricsKey = .;
rightMetricsKey = .;
unicode = 002C;
},
{
glyphname = exclam;
lastChange = "2024-06-21 06:39:49 +0000";
layers = (
{
components = (
{
name = dotaccentcomb;
transform = "{1, 0, 0, 1, 73, -600}";
}
);
layerId = "9DF75A15-0AF9-4389-BE6D-DBD1DB18A6A2";
paths = (
{
closed = 1;
nodes = (
"177 192 LINE",
"177 711 LINE",
"65 711 LINE",
"65 192 LINE"
);
}
);
width = 246;
}
);
leftMetricsKey = H;
rightMetricsKey = H;
unicode = 0021;
},
{
glyphname = exclamdown;
lastChange = "2024-06-21 06:39:49 +0000";
layers = (
{
components = (
{
name = dotaccentcomb;
transform = "{-1, 0, 0, -1, 174, 1134}";
}
);
layerId = "9DF75A15-0AF9-4389-BE6D-DBD1DB18A6A2";
paths = (
{
closed = 1;
nodes = (
"70 357 LINE",
"70 -162 LINE",
"181 -162 LINE",
"181 357 LINE"
);
}
);
width = 246;
}
);
leftMetricsKey = H;
rightMetricsKey = H;
unicode = 00A1;
},
{
glyphname = question;
lastChange = "2024-06-21 07:12:27 +0000";
layers = (
{
components = (
{
name = dotaccentcomb;
transform = "{1, 0, 0, 1, 224, -602}";
}
);
layerId = "9DF75A15-0AF9-4389-BE6D-DBD1DB18A6A2";
paths = (
{
closed = 1;
nodes = (
"326 187 LINE",
"324 260 OFFCURVE",
"342 299 OFFCURVE",
"395 335 CURVE SMOOTH",
"469 385 OFFCURVE",
"513 454 OFFCURVE",
"513 524 CURVE SMOOTH",
"513 643 OFFCURVE",
"425 723 OFFCURVE",
"292 723 CURVE SMOOTH",
"150 723 OFFCURVE",
"54 626 OFFCURVE",
"58 482 CURVE",
"166 482 LINE",
"162 577 OFFCURVE",
"209 632 OFFCURVE",
"292 632 CURVE SMOOTH",
"357 632 OFFCURVE",
"400 594 OFFCURVE",
"400 535 CURVE SMOOTH",
"400 471 OFFCURVE",
"379 432 OFFCURVE",
"323 393 CURVE SMOOTH",
"249 341 OFFCURVE",
"212 271 OFFCURVE",
"215 187 CURVE"
);
}
);
width = 571;
}
);
leftMetricsKey = H;
rightMetricsKey = H;
unicode = 003F;
},
{
glyphname = questiondown;
lastChange = "2024-06-21 07:12:35 +0000";
layers = (
{
components = (
{
name = dotaccentcomb;
transform = "{-1, 0, 0, -1, 351, 1131}";
}
);
layerId = "9DF75A15-0AF9-4389-BE6D-DBD1DB18A6A2";
paths = (
{
closed = 1;
nodes = (
"245 358 LINE",
"247 284 OFFCURVE",
"229 245 OFFCURVE",
"176 209 CURVE SMOOTH",
"102 160 OFFCURVE",
"58 90 OFFCURVE",
"58 20 CURVE SMOOTH",
"58 -99 OFFCURVE",
"147 -178 OFFCURVE",
"279 -178 CURVE SMOOTH",
"421 -178 OFFCURVE",
"517 -81 OFFCURVE",
"513 62 CURVE",
"405 62 LINE",
"409 -33 OFFCURVE",
"362 -88 OFFCURVE",
"279 -88 CURVE SMOOTH",
"214 -88 OFFCURVE",
"172 -50 OFFCURVE",
"172 9 CURVE SMOOTH",
"172 73 OFFCURVE",
"193 112 OFFCURVE",
"248 151 CURVE SMOOTH",
"322 203 OFFCURVE",
"360 274 OFFCURVE",
"357 358 CURVE"
);
}
);
width = 571;
}
);
leftMetricsKey = H;
rightMetricsKey = H;
unicode = 00BF;
},
{
glyphname = asterisk;
lastChange = "2024-06-21 06:39:49 +0000";
layers = (
{
layerId = "9DF75A15-0AF9-4389-BE6D-DBD1DB18A6A2";
paths = (
{
closed = 1;
nodes = (
"172 700 LINE",
"172 615 LINE",
"96 658 LINE",
"56 590 LINE",
"137 544 LINE",
"56 498 LINE",
"96 430 LINE",
"172 474 LINE",
"172 387 LINE",
"259 387 LINE",
"259 474 LINE",
"335 430 LINE",
"374 498 LINE",
"294 544 LINE",
"374 590 LINE",
"335 658 LINE",
"259 615 LINE",
"259 700 LINE"
);
}
);
width = 431;
}
);
leftMetricsKey = H;
rightMetricsKey = H;
unicode = 002A;
},
{
glyphname = numbersign;
lastChange = "2024-06-21 06:39:49 +0000";
layers = (
{
layerId = "9DF75A15-0AF9-4389-BE6D-DBD1DB18A6A2";
paths = (
{
closed = 1;
nodes = (
"155 387 LINE",
"75 387 LINE",
"76 305 LINE",
"141 305 LINE",
"125 212 LINE",
"45 212 LINE",
"45 130 LINE",
"111 130 LINE",
"88 -1 LINE",
"189 -1 LINE",
"212 130 LINE",
"303 130 LINE",
"280 -1 LINE",
"381 -1 LINE",
"404 130 LINE",
"484 130 LINE",
"483 212 LINE",
"418 212 LINE",
"434 305 LINE",
"514 305 LINE",
"513 387 LINE",
"448 387 LINE",
"472 519 LINE",
"371 519 LINE",
"347 387 LINE",
"256 387 LINE",
"280 519 LINE",
"179 519 LINE"
);
},
{
closed = 1;
nodes = (
"242 305 LINE",
"333 305 LINE",
"317 212 LINE",
"226 212 LINE"
);
}
);
width = 582;
}
);
unicode = 0023;
},
{
glyphname = parenleft;
lastChange = "2024-06-21 06:51:43 +0000";
layers = (
{
layerId = "9DF75A15-0AF9-4389-BE6D-DBD1DB18A6A2";
paths = (
{
closed = 1;
nodes = (
"342 27 LINE",
"243 81 OFFCURVE",
"198 193 OFFCURVE",
"198 353 CURVE SMOOTH",
"198 516 OFFCURVE",
"243 628 OFFCURVE",
"342 682 CURVE",
"294 744 LINE",
"165 688 OFFCURVE",
"87 543 OFFCURVE",
"87 354 CURVE SMOOTH",
"87 166 OFFCURVE",
"165 21 OFFCURVE",
"294 -35 CURVE"
);
}
);
width = 381;
}
);
leftMetricsKey = H;
rightMetricsKey = H;
unicode = 0028;
},
{
glyphname = braceleft;
lastChange = "2024-06-21 06:39:49 +0000";
layers = (
{
guideLines = (
{
position = "{60, 352}";
}
);
layerId = "9DF75A15-0AF9-4389-BE6D-DBD1DB18A6A2";
paths = (
{
closed = 1;
nodes = (
"154 455 LINE SMOOTH",
"154 380 OFFCURVE",
"98 399 OFFCURVE",
"58 395 CURVE",
"58 314 LINE",
"98 310 OFFCURVE",
"154 329 OFFCURVE",
"154 254 CURVE SMOOTH",
"154 72 LINE SMOOTH",
"154 -2 OFFCURVE",
"202 -51 OFFCURVE",
"279 -57 CURVE SMOOTH",
"313 -60 OFFCURVE",
"345 -57 OFFCURVE",
"345 -57 CURVE",
"358 -49 LINE",
"358 25 LINE",
"318 28 OFFCURVE",
"263 9 OFFCURVE",
"262 84 CURVE",
"262 267 LINE SMOOTH",
"262 307 OFFCURVE",
"247 336 OFFCURVE",
"216 355 CURVE",
"247 373 OFFCURVE",
"262 402 OFFCURVE",
"262 442 CURVE SMOOTH",
"262 626 LINE SMOOTH",
"262 701 OFFCURVE",
"318 682 OFFCURVE",
"358 685 CURVE",
"358 759 LINE",
"345 767 LINE",
"345 767 OFFCURVE",
"313 770 OFFCURVE",
"279 767 CURVE SMOOTH",
"202 761 OFFCURVE",
"154 712 OFFCURVE",
"154 638 CURVE SMOOTH"
);
}
);
width = 416;
}
);
leftMetricsKey = H;
rightMetricsKey = H;
unicode = 007B;
},
{
glyphname = bracketleft;
lastChange = "2024-06-21 06:39:49 +0000";
layers = (
{
layerId = "9DF75A15-0AF9-4389-BE6D-DBD1DB18A6A2";
paths = (
{
closed = 1;
nodes = (
"267 0 LINE",
"267 87 LINE",
"170 85 LINE",
"170 625 LINE",
"257 624 LINE",
"257 710 LINE",
"58 710 LINE",
"58 0 LINE"
);
}
);
width = 325;
}
);
leftMetricsKey = H;
rightMetricsKey = H;
unicode = 005B;
},
{
glyphname = bracketright;
lastChange = "2024-06-21 06:39:49 +0000";
layers = (
{
layerId = "9DF75A15-0AF9-4389-BE6D-DBD1DB18A6A2";
paths = (
{
closed = 1;
nodes = (
"267 710 LINE",
"68 710 LINE",
"68 624 LINE",
"155 625 LINE",
"155 85 LINE",
"58 87 LINE",
"58 0 LINE",
"267 0 LINE"
);
}
);
width = 325;
}
);
leftMetricsKey = H;
rightMetricsKey = H;
unicode = 005D;
},
{
glyphname = endash;
lastChange = "2024-06-21 06:39:49 +0000";
layers = (
{
layerId = "9DF75A15-0AF9-4389-BE6D-DBD1DB18A6A2";
paths = (
{
closed = 1;
nodes = (
"496 213 LINE",
"496 300 LINE",
"58 300 LINE",
"58 213 LINE"
);
}
);
width = 554;
}
);
leftMetricsKey = H;
rightMetricsKey = H;
unicode = 2013;
},
{
glyphname = emdash;
lastChange = "2024-06-21 06:39:49 +0000";
layers = (
{
layerId = "9DF75A15-0AF9-4389-BE6D-DBD1DB18A6A2";
paths = (
{
closed = 1;
nodes = (
"764 210 LINE",
"764 297 LINE",
"58 297 LINE",
"58 210 LINE"
);
}
);
width = 823;
}
);
leftMetricsKey = H;
rightMetricsKey = H;
unicode = 2014;
},
{
glyphname = underscore;
lastChange = "2024-06-21 06:39:49 +0000";
layers = (
{
layerId = "9DF75A15-0AF9-4389-BE6D-DBD1DB18A6A2";
paths = (
{
closed = 1;
nodes = (
"496 -120 LINE",
"496 -34 LINE",
"58 -34 LINE",
"58 -120 LINE"
);
}
);
width = 554;
}
);
leftMetricsKey = H;
rightMetricsKey = H;
unicode = 005F;
},
{
glyphname = quoteleft;
lastChange = "2024-06-21 07:11:34 +0000";
layers = (
{
layerId = "9DF75A15-0AF9-4389-BE6D-DBD1DB18A6A2";
paths = (
{
closed = 1;
nodes = (
"135 546 LINE",
"127 739 LINE",
"91 739 LINE",
"25 549 LINE",
"15 489 LINE",
"125 489 LINE"
);
}
);
width = 172;
}
);
leftMetricsKey = quotecomb;
rightMetricsKey = quotecomb;
unicode = 2018;
},
{
glyphname = guilsinglleft;
lastChange = "2024-06-21 06:39:49 +0000";
layers = (
{
layerId = "9DF75A15-0AF9-4389-BE6D-DBD1DB18A6A2";
paths = (
{
closed = 1;
nodes = (
"10 210 LINE",
"370 -13 LINE",
"370 100 LINE",
"116 259 LINE",
"370 417 LINE",
"370 530 LINE",
"10 307 LINE"
);
}
);
width = 428;
}
);
leftMetricsKey = y;
rightMetricsKey = H;
unicode = 2039;
},
{
glyphname = at;
lastChange = "2024-06-21 06:39:49 +0000";
layers = (
{
layerId = "9DF75A15-0AF9-4389-BE6D-DBD1DB18A6A2";
paths = (
{
closed = 1;
nodes = (
"488 -108 OFFCURVE",
"567 -80 OFFCURVE",
"626 -29 CURVE",
"563 41 LINE",
"520 -2 OFFCURVE",
"464 -24 OFFCURVE",
"402 -24 CURVE SMOOTH",
"251 -24 OFFCURVE",
"129 104 OFFCURVE",
"129 263 CURVE SMOOTH",
"129 425 OFFCURVE",
"250 553 OFFCURVE",
"402 553 CURVE SMOOTH",
"548 553 OFFCURVE",
"675 435 OFFCURVE",
"675 303 CURVE SMOOTH",
"675 216 OFFCURVE",
"630 148 OFFCURVE",
"576 148 CURVE",
"561 148 OFFCURVE",
"552 160 OFFCURVE",
"555 181 CURVE SMOOTH",
"588 458 LINE",
"495 458 LINE",
"492 431 LINE",
"469 453 OFFCURVE",
"434 467 OFFCURVE",
"395 467 CURVE SMOOTH",
"302 467 OFFCURVE",
"225 383 OFFCURVE",
"211 267 CURVE SMOOTH",
"196 149 OFFCURVE",
"254 66 OFFCURVE",
"348 66 CURVE SMOOTH",
"399 66 OFFCURVE",
"438 87 OFFCURVE",
"463 111 CURVE",
"476 85 OFFCURVE",
"508 69 OFFCURVE",
"552 69 CURVE SMOOTH",
"685 69 OFFCURVE",
"778 165 OFFCURVE",
"778 302 CURVE SMOOTH",
"778 484 OFFCURVE",
"609 632 OFFCURVE",
"403 632 CURVE SMOOTH",
"187 632 OFFCURVE",
"26 474 OFFCURVE",
"26 262 CURVE SMOOTH",
"26 51 OFFCURVE",
"188 -108 OFFCURVE",
"403 -108 CURVE SMOOTH"
);
},
{
closed = 1;
nodes = (
"320 333 OFFCURVE",
"358 379 OFFCURVE",
"404 379 CURVE SMOOTH",
"449 379 OFFCURVE",
"474 334 OFFCURVE",
"467 268 CURVE SMOOTH",
"457 197 OFFCURVE",
"420 152 OFFCURVE",
"373 152 CURVE SMOOTH",
"330 152 OFFCURVE",
"303 200 OFFCURVE",
"311 266 CURVE SMOOTH"
);
}
);
width = 804;
}
);
leftMetricsKey = O;
rightMetricsKey = O;
unicode = 0040;
},
{
glyphname = ampersand;
lastChange = "2024-06-21 06:54:58 +0000";
layers = (
{
layerId = "9DF75A15-0AF9-4389-BE6D-DBD1DB18A6A2";
paths = (
{
closed = 1;
nodes = (
"8 73 OFFCURVE",
"121 -17 OFFCURVE",
"278 -16 CURVE SMOOTH",
"344 -16 OFFCURVE",
"410 8 OFFCURVE",
"464 50 CURVE",
"523 -16 LINE",
"660 -16 LINE",
"536 124 LINE",
"565 166 OFFCURVE",
"581 207 OFFCURVE",
"583 246 CURVE",
"472 244 LINE",
"471 232 OFFCURVE",
"467 219 OFFCURVE",
"462 208 CURVE",
"340 346 LINE",
"446 390 OFFCURVE",
"501 454 OFFCURVE",
"501 536 CURVE SMOOTH",
"501 641 OFFCURVE",
"403 726 OFFCURVE",
"282 726 CURVE SMOOTH",
"170 726 OFFCURVE",
"83 649 OFFCURVE",
"83 550 CURVE SMOOTH",
"83 495 OFFCURVE",
"104 452 OFFCURVE",
"160 389 CURVE",
"165 384 LINE",
"58 337 OFFCURVE",
"8 278 OFFCURVE",
"8 197 CURVE SMOOTH"
);
},
{
closed = 1;
nodes = (
"122 243 OFFCURVE",
"154 277 OFFCURVE",
"233 308 CURVE",
"397 125 LINE",
"353 92 OFFCURVE",
"304 74 OFFCURVE",
"259 74 CURVE SMOOTH",
"168 74 OFFCURVE",
"124 147 OFFCURVE",
"123 192 CURVE SMOOTH"
);
},
{
closed = 1;
nodes = (
"197 603 OFFCURVE",
"232 635 OFFCURVE",
"282 635 CURVE SMOOTH",
"344 635 OFFCURVE",
"387 600 OFFCURVE",
"387 548 CURVE SMOOTH",
"387 489 OFFCURVE",
"355 454 OFFCURVE",
"272 423 CURVE",
"223 478 OFFCURVE",
"197 507 OFFCURVE",
"197 555 CURVE SMOOTH"
);
}
);
width = 656;
}
);
unicode = 0026;
},
{
glyphname = section;
lastChange = "2024-06-21 06:54:34 +0000";
layers = (
{
guideLines = (
{
position = "{-132, 341}";
},
{
position = "{-132, 177}";
}
);
layerId = "9DF75A15-0AF9-4389-BE6D-DBD1DB18A6A2";
paths = (
{
closed = 1;
nodes = (
"384 -165 OFFCURVE",
"466 -108 OFFCURVE",
"466 -15 CURVE SMOOTH",
"466 41 OFFCURVE",
"440 80 OFFCURVE",
"373 122 CURVE",
"446 142 OFFCURVE",
"486 186 OFFCURVE",
"486 251 CURVE SMOOTH",
"486 352 OFFCURVE",
"388 401 OFFCURVE",
"292 464 CURVE",
"290 465 OFFCURVE",
"286 467 OFFCURVE",
"276 474 CURVE",
"269 478 OFFCURVE",
"267 479 OFFCURVE",
"258 485 CURVE",
"180 532 OFFCURVE",
"163 550 OFFCURVE",
"163 581 CURVE SMOOTH",
"163 616 OFFCURVE",
"193 636 OFFCURVE",
"251 636 CURVE SMOOTH",
"321 636 OFFCURVE",
"355 607 OFFCURVE",
"357 546 CURVE",
"471 546 LINE",
"467 650 OFFCURVE",
"375 727 OFFCURVE",
"262 727 CURVE SMOOTH",
"132 727 OFFCURVE",
"50 670 OFFCURVE",
"50 577 CURVE SMOOTH",
"50 517 OFFCURVE",
"81 478 OFFCURVE",
"167 427 CURVE SMOOTH",
"189 414 LINE",
"205 451 LINE",
"199 451 OFFCURVE",
"191 450 OFFCURVE",
"182 449 CURVE",
"176 448 OFFCURVE",
"175 448 OFFCURVE",
"173 448 CURVE",
"79 431 OFFCURVE",
"30 385 OFFCURVE",
"30 311 CURVE SMOOTH",
"30 210 OFFCURVE",
"129 161 OFFCURVE",
"224 99 CURVE SMOOTH",
"232 94 OFFCURVE",
"241 88 OFFCURVE",
"263 75 CURVE SMOOTH",
"333 32 OFFCURVE",
"353 12 OFFCURVE",
"353 -18 CURVE SMOOTH",
"353 -53 OFFCURVE",
"323 -73 OFFCURVE",
"265 -73 CURVE SMOOTH",
"194 -73 OFFCURVE",
"161 -44 OFFCURVE",
"159 16 CURVE",
"45 16 LINE",
"49 -87 OFFCURVE",
"141 -165 OFFCURVE",
"254 -165 CURVE SMOOTH"
);
},
{
closed = 1;
nodes = (
"271 179 LINE SMOOTH",
"173 239 OFFCURVE",
"139 275 OFFCURVE",
"139 316 CURVE SMOOTH",
"139 358 OFFCURVE",
"175 390 OFFCURVE",
"233 396 CURVE",
"222 397 LINE",
"249 381 LINE SMOOTH",
"343 324 OFFCURVE",
"377 287 OFFCURVE",
"377 246 CURVE SMOOTH",
"377 206 OFFCURVE",
"343 176 OFFCURVE",
"290 168 CURVE"
);
}
);
width = 491;
}
);
unicode = 00A7;
},
{
glyphname = copyright;
lastChange = "2024-06-21 06:39:49 +0000";
layers = (
{
layerId = "9DF75A15-0AF9-4389-BE6D-DBD1DB18A6A2";
paths = (
{
closed = 1;
nodes = (
"622 -108 OFFCURVE",
"777 46 OFFCURVE",
"777 262 CURVE SMOOTH",
"777 480 OFFCURVE",
"624 632 OFFCURVE",
"403 632 CURVE SMOOTH",
"183 632 OFFCURVE",
"26 478 OFFCURVE",
"26 262 CURVE SMOOTH",
"26 47 OFFCURVE",
"183 -108 OFFCURVE",
"403 -108 CURVE SMOOTH"
);
},
{
closed = 1;
nodes = (
"130 429 OFFCURVE",
"243 552 OFFCURVE",
"401 552 CURVE SMOOTH",
"562 552 OFFCURVE",
"674 432 OFFCURVE",
"674 261 CURVE SMOOTH",
"674 95 OFFCURVE",
"560 -27 OFFCURVE",
"401 -27 CURVE SMOOTH",
"244 -27 OFFCURVE",
"130 95 OFFCURVE",
"130 261 CURVE SMOOTH"
);
},
{
closed = 1;
nodes = (
"220 141 OFFCURVE",
"300 57 OFFCURVE",
"411 57 CURVE SMOOTH",
"505 57 OFFCURVE",
"570 116 OFFCURVE",
"588 216 CURVE",
"481 216 LINE",
"474 174 OFFCURVE",
"445 146 OFFCURVE",
"409 146 CURVE SMOOTH",
"358 146 OFFCURVE",
"324 191 OFFCURVE",
"324 257 CURVE SMOOTH",
"324 326 OFFCURVE",
"359 371 OFFCURVE",
"409 371 CURVE SMOOTH",
"444 371 OFFCURVE",
"474 342 OFFCURVE",
"481 300 CURVE",
"586 300 LINE",
"571 400 OFFCURVE",
"506 459 OFFCURVE",
"411 459 CURVE SMOOTH",
"300 459 OFFCURVE",
"220 375 OFFCURVE",
"220 258 CURVE SMOOTH"
);
}
);
width = 803;
}
);
leftMetricsKey = O;
rightMetricsKey = O;
unicode = 00A9;
},
{
glyphname = degree;
lastChange = "2024-06-21 06:39:49 +0000";
layers = (
{
layerId = "9DF75A15-0AF9-4389-BE6D-DBD1DB18A6A2";
paths = (
{
closed = 1;
nodes = (
"153 513 OFFCURVE",
"201 557 OFFCURVE",
"201 612 CURVE SMOOTH",
"201 668 OFFCURVE",
"154 711 OFFCURVE",
"93 711 CURVE SMOOTH",
"32 711 OFFCURVE",
"-15 668 OFFCURVE",
"-15 612 CURVE SMOOTH",
"-15 557 OFFCURVE",
"33 513 OFFCURVE",
"93 513 CURVE SMOOTH"
);
},
{
closed = 1;
nodes = (
"60 636 OFFCURVE",
"73 651 OFFCURVE",
"93 651 CURVE SMOOTH",
"112 651 OFFCURVE",
"126 635 OFFCURVE",
"126 612 CURVE SMOOTH",
"126 591 OFFCURVE",
"111 573 OFFCURVE",
"93 573 CURVE SMOOTH",
"74 573 OFFCURVE",
"60 590 OFFCURVE",
"60 612 CURVE SMOOTH"
);
}
);
width = 186;
}
);
unicode = 00B0;
},
{
glyphname = bar;
lastChange = "2024-06-21 06:39:49 +0000";
layers = (
{
layerId = "9DF75A15-0AF9-4389-BE6D-DBD1DB18A6A2";
paths = (
{
closed = 1;
nodes = (
"58 -162 LINE",
"170 -162 LINE",
"170 711 LINE",
"58 711 LINE"
);
}
);
width = 228;
}
);
leftMetricsKey = H;
rightMetricsKey = H;
unicode = 007C;
},
{
glyphname = dollar;
lastChange = "2024-06-21 06:55:11 +0000";
layers = (
{
components = (
{
name = S;
}
);
layerId = "9DF75A15-0AF9-4389-BE6D-DBD1DB18A6A2";
paths = (
{
closed = 1;
nodes = (
"270 -82 LINE",
"381 -82 LINE",
"381 792 LINE",
"270 792 LINE"
);
}
);
width = 656;
}
);
leftMetricsKey = S;
rightMetricsKey = S;
unicode = 0024;
},
{
glyphname = euro;
lastChange = "2024-06-21 06:55:30 +0000";
layers = (
{
guideLines = (
{
position = "{-68, 481}";
},
{
position = "{-68, 244}";
}
);
layerId = "9DF75A15-0AF9-4389-BE6D-DBD1DB18A6A2";
paths = (
{
closed = 1;
nodes = (
"510 132 OFFCURVE",
"462 75 OFFCURVE",
"380 75 CURVE SMOOTH",
"298 75 OFFCURVE",
"248 134 OFFCURVE",
"230 254 CURVE",
"421 254 LINE",
"421 340 LINE",
"224 340 LINE",
"224 353 LINE SMOOTH",
"224 367 OFFCURVE",
"224 379 OFFCURVE",
"225 391 CURVE",
"421 391 LINE",
"421 477 LINE",
"235 477 LINE",
"255 583 OFFCURVE",
"304 634 OFFCURVE",
"380 634 CURVE SMOOTH",
"456 634 OFFCURVE",
"503 584 OFFCURVE",
"524 479 CURVE",
"637 478 LINE",
"609 639 OFFCURVE",
"520 725 OFFCURVE",
"379 725 CURVE SMOOTH",
"239 725 OFFCURVE",
"148 638 OFFCURVE",
"120 477 CURVE",
"58 477 LINE",
"58 391 LINE",
"111 391 LINE",
"111 378 OFFCURVE",
"111 366 OFFCURVE",
"111 354 CURVE SMOOTH",
"111 340 LINE",
"58 340 LINE",
"58 254 LINE",
"117 254 LINE",
"140 80 OFFCURVE",
"232 -16 OFFCURVE",
"379 -16 CURVE SMOOTH",
"527 -16 OFFCURVE",
"618 78 OFFCURVE",
"641 252 CURVE",
"527 252 LINE"
);
}
);
width = 667;
}
);
leftMetricsKey = N;
rightMetricsKey = O;
unicode = 20AC;
},
{
glyphname = minus;
lastChange = "2024-06-21 06:39:49 +0000";
layers = (
{
layerId = "9DF75A15-0AF9-4389-BE6D-DBD1DB18A6A2";
paths = (
{
closed = 1;
nodes = (
"589 211 LINE",
"589 297 LINE",
"58 297 LINE",
"58 210 LINE"
);
}
);
width = 647;
}
);
leftMetricsKey = H;
rightMetricsKey = H;
unicode = 2212;
},
{
glyphname = equal;
lastChange = "2024-06-21 06:39:49 +0000";
layers = (
{
layerId = "9DF75A15-0AF9-4389-BE6D-DBD1DB18A6A2";
paths = (
{
closed = 1;
nodes = (
"496 325 LINE",
"496 411 LINE",
"58 411 LINE",
"58 325 LINE"
);
},
{
closed = 1;
nodes = (
"496 125 LINE",
"496 211 LINE",
"58 211 LINE",
"58 125 LINE"
);
}
);
width = 554;
}
);
leftMetricsKey = H;
rightMetricsKey = H;
unicode = 003D;
},
{
glyphname = notequal;
lastChange = "2024-06-21 06:39:49 +0000";
layers = (
{
components = (
{
name = equal;
}
);
layerId = "9DF75A15-0AF9-4389-BE6D-DBD1DB18A6A2";
paths = (
{
closed = 1;
nodes = (
"180 -1 LINE",
"284 -1 LINE",
"375 518 LINE",
"271 518 LINE"
);
}
);
width = 554;
}
);
unicode = 2260;
},
{
glyphname = percent;
lastChange = "2024-06-21 06:39:49 +0000";
layers = (
{
components = (
{
name = fraction;
}
);
guideLines = (
{
angle = 270;
position = "{71, -141}";
},
{
angle = 270;
position = "{562, -141}";
}
);
hints = (
{
place = "{29, 38}";
type = Stem;
},
{
place = "{219, 38}";
type = Stem;
},
{
horizontal = 1;
place = "{514, -37}";
type = Stem;
},
{
horizontal = 1;
place = "{266, 37}";
type = Stem;
}
);
layerId = "9DF75A15-0AF9-4389-BE6D-DBD1DB18A6A2";
paths = (
{
closed = 1;
nodes = (
"237 399 OFFCURVE",
"299 464 OFFCURVE",
"299 555 CURVE SMOOTH",
"299 647 OFFCURVE",
"238 711 OFFCURVE",
"150 711 CURVE SMOOTH",
"63 711 OFFCURVE",
"1 646 OFFCURVE",
"1 555 CURVE SMOOTH",
"1 464 OFFCURVE",
"63 399 OFFCURVE",
"150 399 CURVE SMOOTH"
);
},
{
closed = 1;
nodes = (
"90 605 OFFCURVE",
"115 637 OFFCURVE",
"150 637 CURVE SMOOTH",
"186 637 OFFCURVE",
"210 605 OFFCURVE",
"210 555 CURVE SMOOTH",
"210 507 OFFCURVE",
"186 473 OFFCURVE",
"150 473 CURVE SMOOTH",
"115 473 OFFCURVE",
"90 506 OFFCURVE",
"90 555 CURVE SMOOTH"
);
},
{
closed = 1;
nodes = (
"356 64 OFFCURVE",
"418 -1 OFFCURVE",
"505 -1 CURVE SMOOTH",
"592 -1 OFFCURVE",
"654 64 OFFCURVE",
"654 155 CURVE SMOOTH",
"654 247 OFFCURVE",
"593 311 OFFCURVE",
"505 311 CURVE SMOOTH",
"418 311 OFFCURVE",
"356 246 OFFCURVE",
"356 155 CURVE SMOOTH"
);
},
{
closed = 1;
nodes = (
"445 205 OFFCURVE",
"470 238 OFFCURVE",
"505 238 CURVE SMOOTH",
"542 238 OFFCURVE",
"565 205 OFFCURVE",
"565 155 CURVE SMOOTH",
"565 107 OFFCURVE",
"541 74 OFFCURVE",
"505 74 CURVE SMOOTH",
"470 74 OFFCURVE",
"445 106 OFFCURVE",
"445 155 CURVE SMOOTH"
);
}
);
width = 653;
}
);
unicode = 0025;
},
{
export = 0;
glyphname = dotaccentcomb;
lastChange = "2024-06-21 07:07:49 +0000";
layers = (
{
layerId = "9DF75A15-0AF9-4389-BE6D-DBD1DB18A6A2";
paths = (
{
closed = 1;
nodes = (
"-15 616 OFFCURVE",
"14 589 OFFCURVE",
"50 589 CURVE SMOOTH",
"87 589 OFFCURVE",
"115 616 OFFCURVE",
"115 653 CURVE SMOOTH",
"115 690 OFFCURVE",
"87 718 OFFCURVE",
"50 718 CURVE SMOOTH",
"14 718 OFFCURVE",
"-15 690 OFFCURVE",
"-15 653 CURVE SMOOTH"
);
}
);
width = 101;
}
);
unicode = 0307;
},
{
export = 0;
glyphname = acutecomb;
lastChange = "2024-06-21 07:13:59 +0000";
layers = (
{
layerId = "9DF75A15-0AF9-4389-BE6D-DBD1DB18A6A2";
paths = (
{
closed = 1;
nodes = (
"60 598 LINE",
"109 645 LINE SMOOTH",
"140 675 OFFCURVE",
"182 711 OFFCURVE",
"182 711 CURVE",
"295 711 LINE",
"295 711 OFFCURVE",
"253 667 OFFCURVE",
"217 632 CURVE SMOOTH",
"182 598 LINE"
);
}
);
width = 339;
}
);
leftMetricsKey = i;
rightMetricsKey = i;
unicode = 0301;
},
{
export = 0;
glyphname = circumflexcomb;
lastChange = "2024-06-21 07:07:25 +0000";
layers = (
{
layerId = "9DF75A15-0AF9-4389-BE6D-DBD1DB18A6A2";
paths = (
{
closed = 1;
nodes = (
"131 711 LINE",
"60 598 LINE",
"150 598 LINE",
"181 646 LINE",
"211 598 LINE",
"303 598 LINE",
"231 711 LINE"
);
}
);
width = 363;
}
);
leftMetricsKey = i;
rightMetricsKey = i;
unicode = 0302;
},
{
export = 0;
glyphname = ringcomb;
lastChange = "2024-06-21 07:17:13 +0000";
layers = (
{
layerId = "9DF75A15-0AF9-4389-BE6D-DBD1DB18A6A2";
paths = (
{
closed = 1;
nodes = (
"177 577 OFFCURVE",
"210 606 OFFCURVE",
"210 644 CURVE SMOOTH",
"210 682 OFFCURVE",
"177 711 OFFCURVE",
"135 711 CURVE SMOOTH",
"93 711 OFFCURVE",
"60 682 OFFCURVE",
"60 644 CURVE SMOOTH",
"60 606 OFFCURVE",
"93 577 OFFCURVE",
"135 577 CURVE SMOOTH"
);
},
{
closed = 1;
nodes = (
"113 659 OFFCURVE",
"121 666 OFFCURVE",
"135 666 CURVE SMOOTH",
"149 666 OFFCURVE",
"157 659 OFFCURVE",
"157 644 CURVE SMOOTH",
"157 630 OFFCURVE",
"149 623 OFFCURVE",
"135 623 CURVE SMOOTH",
"121 623 OFFCURVE",
"113 630 OFFCURVE",
"113 644 CURVE SMOOTH"
);
}
);
width = 270;
}
);
leftMetricsKey = i;
rightMetricsKey = i;
unicode = 030A;
},
{
export = 0;
glyphname = strokeshortcomb;
lastChange = "2024-06-21 06:39:49 +0000";
layers = (
{
layerId = "9DF75A15-0AF9-4389-BE6D-DBD1DB18A6A2";
paths = (
{
closed = 1;
nodes = (
"359 213 LINE",
"359 300 LINE",
"58 300 LINE",
"58 213 LINE"
);
}
);
width = 417;
}
);
leftMetricsKey = H;
rightMetricsKey = H;
unicode = 0335;
},
{
export = 0;
glyphname = slashlongcomb;
lastChange = "2024-06-21 06:39:49 +0000";
layers = (
{
layerId = "9DF75A15-0AF9-4389-BE6D-DBD1DB18A6A2";
paths = (
{
closed = 1;
nodes = (
"57 -16 LINE",
"160 -16 LINE",
"292 726 LINE",
"188 726 LINE"
);
}
);
width = 348;
}
);
leftMetricsKey = H;
rightMetricsKey = H;
unicode = 0338;
},
{
export = 0;
glyphname = unbenannt;
lastChange = "2024-06-21 06:39:49 +0000";
layers = (
{
layerId = "9DF75A15-0AF9-4389-BE6D-DBD1DB18A6A2";
paths = (
{
closed = 1;
nodes = (
"182 184 OFFCURVE",
"195 185 OFFCURVE",
"195 185 CURVE",
"209 194 LINE",
"209 269 LINE",
"173 265 OFFCURVE",
"164 271 OFFCURVE",
"166 314 CURVE",
"58 297 LINE",
"55 226 OFFCURVE",
"99 184 OFFCURVE",
"175 184 CURVE SMOOTH"
);
}
);
width = 267;
}
);
leftMetricsKey = H;
rightMetricsKey = H;
},
{
export = 0;
glyphname = quotecomb;
lastChange = "2024-06-21 07:29:46 +0000";
layers = (
{
layerId = "9DF75A15-0AF9-4389-BE6D-DBD1DB18A6A2";
paths = (
{
closed = 1;
nodes = (
"30 677 LINE",
"30 677 OFFCURVE",
"62 494 OFFCURVE",
"62 494 CURVE",
"101 494 LINE",
"101 494 OFFCURVE",
"133 677 OFFCURVE",
"133 677 CURVE",
"133 732 LINE",
"30 732 LINE"
);
}
);
width = 163;
}
);
},
{
export = 0;
glyphname = istrokecomp;
lastChange = "2024-06-21 06:39:49 +0000";
layers = (
{
layerId = "9DF75A15-0AF9-4389-BE6D-DBD1DB18A6A2";
paths = (
{
closed = 1;
nodes = (
"168 -1 LINE",
"168 518 LINE",
"60 518 LINE",
"60 -1 LINE"
);
}
